<svg width="30" height="31" viewBox="0 0 30 31" fill="none" xmlns="http://www.w3.org/2000/svg">
<path fill-rule="evenodd" clip-rule="evenodd" d="M26.7809 16.8393C27.8132 16.8388 28.8444 16.8364 29.8747 16.8364C30.6901 11.8676 27.4552 5.83783 22.4513 2.91937C17.1579 -0.168032 10.4201 0.385679 5.51726 4.2763C1.33757 7.59564 -0.612134 13.4687 0.169116 16.8076C0.246753 16.8202 0.323901 16.8456 0.401538 16.8456C2.00505 16.8471 3.60906 16.8471 5.21306 16.8437C8.16814 16.8364 8.16863 16.8349 8.90935 13.9355L8.91374 13.9179L9.24431 12.6166C9.80583 10.4042 10.3674 8.19183 10.9982 5.99994C11.1149 5.58832 11.7848 4.98773 12.0656 5.05267C12.4958 5.1513 12.9474 5.69769 13.1364 6.15619C13.3508 6.67523 13.2912 7.30609 13.34 7.89056L13.8683 14.1498L14.2541 18.7289C14.6252 17.4623 14.9401 16.1904 15.2385 14.9189C15.5529 13.58 15.8488 12.2416 16.173 10.9096C16.2883 10.4389 16.8356 10.0722 17.1828 9.65716C17.6222 10.0287 18.2648 10.3163 18.4645 10.789C18.904 11.8271 19.2819 12.8911 19.6598 13.9555C19.9089 14.6557 20.1579 15.3559 20.4245 16.0493C20.5417 16.3569 20.8801 16.7988 21.1232 16.8022C23.0094 16.8359 24.8967 16.8403 26.7809 16.8393ZM14.7121 30.9316C21.8581 30.9872 28.4714 25.7988 29.5475 19.0253C26.4587 19.0253 23.4904 19.0004 20.5207 19.04C19.4982 19.0541 18.9186 18.6518 18.6232 17.6865C18.3659 16.8471 18.0221 16.0351 17.5866 14.8613L17.0744 17.2289C16.8405 18.3076 16.6222 19.3134 16.4074 20.3193C16.2736 20.9452 16.1442 21.5722 16.0153 22.1992C15.6877 23.7895 15.36 25.3793 14.9587 26.9492C14.9059 27.1567 14.7648 27.3901 14.5851 27.5937C14.3556 27.8544 14.0622 28.0663 13.8083 28.1118C12.9767 28.2612 12.757 27.5063 12.6764 26.7997C12.6696 26.7358 12.6657 26.6718 12.6618 26.6078C12.6589 26.5551 12.6559 26.5024 12.651 26.4496C12.32 22.3627 11.9885 18.2758 11.6486 14.1894C11.6374 14.0576 11.5934 13.9282 11.526 13.7285C11.487 13.6122 11.4396 13.4721 11.3859 13.2944C11.2516 13.8217 11.1208 14.3188 10.9953 14.7958C10.7311 15.8017 10.4899 16.7182 10.2858 17.6435C10.0646 18.6552 9.52458 19.0668 8.47673 19.0361C7.27117 19.0004 6.06365 19.0146 4.85613 19.0287C4.30242 19.0351 3.74871 19.0419 3.19548 19.0434C2.5866 19.0458 1.9782 19.0449 1.36296 19.0444L0.425464 19.0434C1.40105 25.5204 7.94597 30.8793 14.7121 30.9316Z" fill="#002D74"/>
</svg>
