<svg width="30" height="31" viewBox="0 0 30 31" fill="none" xmlns="http://www.w3.org/2000/svg">
<path d="M11.2979 23.8946H13.5469V20.2377C12.4731 19.5664 11.4926 19.1274 10.7452 18.4548C7.45385 15.4965 4.22833 12.4721 0.984989 9.46452C0.64077 9.14506 0.130611 8.8152 0.0634125 8.43211C-0.0435561 7.81917 -0.0408143 7.04523 0.274606 6.54397C0.698366 5.87389 1.55 5.75053 2.31935 6.19205C2.7294 6.4271 3.09556 6.74263 3.44252 7.06079C6.61044 9.97486 9.75779 12.9097 12.9463 15.8043C13.285 16.1108 13.8665 16.403 14.2971 16.3588C19.0846 15.8705 23.5032 17.1782 27.8766 18.7482C28.1029 18.83 28.3401 18.8846 28.5651 18.969C29.7431 19.4144 30.2436 20.2663 29.8871 21.2065C29.5579 22.0779 28.6131 22.4713 27.4734 22.1259C25.2394 21.4493 23.0246 20.7182 20.792 20.0351C20.2777 19.878 19.7264 19.8261 19.0956 19.7079V23.9024H21.8795V25.9321H11.2979V23.8946Z" fill="#002D74"/>
</svg>
