<svg width="30" height="31" viewBox="0 0 30 31" fill="none" xmlns="http://www.w3.org/2000/svg">
<path fill-rule="evenodd" clip-rule="evenodd" d="M22.4356 3.0597C18.71 3.8133 15.4213 6.22019 13.5731 9.5458C13.0705 10.4505 12.5621 11.5444 12.4434 11.977L12.2277 12.7636L10.2918 12.7017L8.35567 12.6398L8.06112 11.8877C7.89904 11.474 7.62466 11.0757 7.4513 11.0025C7.27814 10.9294 6.16171 10.8866 4.97024 10.9071C3.06792 10.9402 2.69941 11.0097 1.94441 11.4773C-0.679298 13.1021 -0.638777 17.7123 2.01146 19.1233C2.68251 19.4806 3.15805 19.5322 5.30077 19.48L7.80564 19.4192L8.12636 18.5991L8.44689 17.779H10.0585C11.1338 17.779 11.7284 17.87 11.8447 18.0524C11.9404 18.2028 12.2001 18.9223 12.4214 19.6514C13.1846 22.1661 14.6955 24.3272 16.9227 26.0903C19.41 28.0596 21.9823 28.9321 25.2996 28.9321C27.0518 28.9321 27.3743 28.8698 28.2075 28.3701C28.9883 27.9019 29.2243 27.6119 29.623 26.6313C30.046 25.5908 30.0773 25.366 29.8926 24.6928C29.6157 23.6829 28.46 22.4563 27.4884 22.141C27.058 22.0012 26.3199 21.9417 25.8481 22.0087C23.6475 22.3214 20.5864 20.967 19.4518 19.1786C18.3666 17.468 18.2038 15.0928 19.0475 13.2825C19.5395 12.2267 20.9073 10.9633 22.2392 10.3344C23.0117 9.96983 23.8257 9.82113 25.6543 9.71091C27.6772 9.5891 28.135 9.49506 28.5616 9.11476C30.4427 7.43764 30.2928 4.63864 28.2558 3.4002C27.5344 2.96151 27.199 2.91143 25.1682 2.93789C23.9151 2.95429 22.6855 3.00897 22.4356 3.0597ZM23.7387 4.8009C24.2277 5.33341 24.1666 6.32167 23.618 6.75423C23.0355 7.2137 22.3779 7.01753 22.1077 6.30395C21.6049 4.97585 22.8478 3.83058 23.7387 4.8009ZM27.5546 4.8009C28.2622 5.57134 27.7021 7.18964 26.7845 7.02606C26.5614 6.98648 26.2192 6.69562 26.024 6.37984C25.7213 5.88976 25.7026 5.72968 25.8968 5.28639C26.3041 4.35653 26.968 4.16211 27.5546 4.8009ZM19.9907 6.50668C20.5319 7.15771 20.5529 7.57957 20.0734 8.15668C19.6379 8.68088 18.9352 8.72375 18.5418 8.2505C18.118 7.7403 18.1805 6.71443 18.6603 6.31029C19.2143 5.84317 19.471 5.88101 19.9907 6.50668ZM16.5482 9.41743C16.6582 9.50578 16.8506 9.81194 16.9756 10.0975C17.1699 10.5408 17.1512 10.7009 16.8484 11.191C16.4123 11.8965 15.7971 12.0343 15.3341 11.53C14.4268 10.5419 15.5392 8.60653 16.5482 9.41743ZM4.36787 13.288C6.10284 14.1606 5.5637 17.3416 3.68083 17.3416C1.8223 17.3416 1.21812 14.3012 2.88058 13.314C3.58252 12.8972 3.5907 12.8972 4.36787 13.288ZM14.9129 14.2286C15.1511 14.4199 15.5307 15.249 15.5307 15.5777C15.5307 15.9831 14.8196 16.6856 14.4093 16.6856C13.4946 16.6856 13.0214 15.2982 13.6509 14.4613C13.9587 14.0519 14.556 13.9419 14.9129 14.2286ZM16.7926 19.4535C17.6118 20.7068 16.2989 22.2033 15.3179 21.1348C14.8536 20.6292 14.8907 19.6333 15.3895 19.2129C15.9693 18.724 16.3594 18.7909 16.7926 19.4535ZM20.0734 22.5902C20.2733 22.8307 20.4368 23.1795 20.4368 23.3654C20.4368 23.7785 19.6359 24.777 19.3044 24.777C18.8251 24.777 18.2563 24.0971 18.2563 23.5244C18.2563 22.2936 19.3567 21.7276 20.0734 22.5902ZM23.6671 24.0241C24.4757 24.7055 23.9816 26.3079 22.963 26.3079C22.4553 26.3079 21.8905 25.6435 21.8905 25.0465C21.8905 24.6714 22.7113 23.6836 23.0229 23.6836C23.1552 23.6836 23.445 23.8369 23.6671 24.0241ZM27.483 24.0241C28.2861 24.7009 27.799 26.3079 26.7907 26.3079C26.2572 26.3079 26.0039 26.0408 25.8082 25.2728C25.7168 24.9133 25.8047 24.6388 26.1411 24.234C26.6722 23.5948 26.9268 23.555 27.483 24.0241Z" fill="#18316F"/>
</svg>
