<svg width="30" height="31" viewBox="0 0 30 31" fill="none" xmlns="http://www.w3.org/2000/svg">
<path fill-rule="evenodd" clip-rule="evenodd" d="M13.0847 1.34296C12.8986 1.50957 12.7524 2.30791 12.7524 3.15684V4.6732L11.2916 5.21519C8.13277 6.38742 6.54517 8.36221 6.57369 11.0835C6.60775 14.322 8.3183 15.8652 14.2755 18.0319C17.6908 19.2738 18.8826 20.3446 18.2862 21.6344C17.4989 23.3357 14.9204 23.6934 11.995 22.5073C11.0452 22.1223 10.1263 21.6544 9.95326 21.4677C9.3227 20.7877 8.47144 21.0904 7.3992 22.3759C6.82707 23.0622 6.29566 23.7711 6.21867 23.9508C5.9063 24.6797 9.6276 26.8474 11.8405 27.2258C12.723 27.3768 12.7289 27.3877 12.8097 29.0255L12.8909 30.6735L14.8855 30.7462L16.8805 30.8188L16.9625 29.1445L17.0447 27.4705L18.1757 27.1782C21.9097 26.2132 24.0185 23.626 23.782 20.3C23.5768 17.4123 22.2077 16.2197 16.76 14.183C12.1753 12.469 11.1357 11.4284 12.4799 9.89841C13.7189 8.48816 16.0932 8.43758 19.0391 9.75882C19.9837 10.1825 20.9449 10.4644 21.175 10.3854C21.4049 10.3063 21.9786 9.55824 22.4497 8.72271C23.4231 6.9961 23.3754 6.85403 21.4976 5.89329C20.4154 5.33965 19.3135 4.98436 17.6678 4.65808C16.9342 4.51254 16.9062 4.44882 16.9062 2.92676C16.9062 1.71436 16.8043 1.31147 16.4682 1.19593C15.7066 0.934361 13.4309 1.03304 13.0847 1.34296Z" fill="#18316F"/>
</svg>
