<svg width="30" height="31" viewBox="0 0 30 31" fill="none" xmlns="http://www.w3.org/2000/svg">
<path fill-rule="evenodd" clip-rule="evenodd" d="M5.52 6.21448V8.4966H2.76H0V18.2144V27.9321H15H30V18.2144V8.4966H27.3691H24.738L24.6691 6.27711L24.6 4.05762L15.06 3.99499L5.52 3.93213V6.21448ZM19.0654 11.8928C19.3997 12.0451 19.8233 12.3986 20.0066 12.6784C20.8846 14.018 20.6609 17.5792 19.5166 20.4847C18.2549 23.6882 17.052 23.9939 16.0745 21.3591C15.7973 20.6117 15.5652 20.3568 15.1133 20.3036C14.5834 20.2412 14.4641 20.3878 14.0386 21.6233C13.6781 22.6701 13.4335 23.0313 13.0481 23.0862C11.712 23.2767 9.90672 19.1967 9.66912 15.4492C9.5448 13.4853 9.56544 13.3732 10.1911 12.6299C11.021 11.644 12.0931 11.5931 13.428 12.4763C13.9438 12.8175 14.8325 13.1429 15.4027 13.1998L16.44 13.3027L15.24 12.9099L14.04 12.5171L15.6 12.0998C17.5322 11.5832 18.2866 11.5381 19.0654 11.8928Z" fill="#18316F"/>
</svg>
