<svg width="30" height="31" viewBox="0 0 30 31" fill="none" xmlns="http://www.w3.org/2000/svg">
<path d="M12.5818 0.932129C17.8361 4.09953 20.4874 8.44586 20.4939 14.3436C21.5389 13.9066 21.8502 13.4453 22.4179 11.4826C25.2546 15.5225 27.2302 22.7056 23.4048 27.5341C22.2034 29.0501 20.7535 30.2161 18.936 30.9321C18.9295 30.8402 18.8957 30.7483 18.9247 30.7176C21.6067 27.9728 21.8905 24.8586 19.7182 21.6896C19.1924 20.9219 18.5683 20.222 18.0748 19.4366C17.5829 18.656 17.1104 17.8384 16.7894 16.9788C16.4846 16.166 16.3879 15.2757 16.1701 14.2823C13.0447 16.9626 12.3722 20.3913 12.7221 24.2941C11.1078 23.4862 10.6981 22.146 10.6578 20.5881C8.19519 22.7556 8.321 27.5728 11.0497 30.8434C10.5982 30.6725 10.3288 30.6015 10.0869 30.4741C4.76007 27.6776 2.87641 20.9703 5.95188 15.5306C6.69051 14.2243 7.60979 13.0034 8.55485 11.831C11.0594 8.72806 12.8108 5.35746 12.5818 0.932129Z" fill="#002D74"/>
</svg>
