<svg width="320" height="307" viewBox="0 0 320 307" fill="none" xmlns="http://www.w3.org/2000/svg">
<path d="M205.397 299.484C240.749 290.482 271.683 269.066 292.554 239.146C313.424 209.227 322.839 172.799 319.078 136.514C315.317 100.229 298.632 66.5065 272.068 41.5034C245.505 16.5003 210.836 1.88439 174.39 0.323975L167.888 152.185L205.397 299.484Z" fill="#0A2C76"/>
<path d="M246.767 144.559H244.527V148.185H241.924V144.559H234.331V142.501L241.924 131.521H244.527V142.342H246.767V144.559ZM241.924 142.342V138.17C241.924 136.685 241.962 135.469 242.038 134.522H241.947C241.735 135.022 241.401 135.628 240.947 136.34L236.82 142.342H241.924Z" fill="white"/>
<path d="M259.475 139.876C259.475 142.763 259.009 144.907 258.077 146.309C257.153 147.711 255.735 148.412 253.826 148.412C251.977 148.412 250.575 147.689 249.62 146.241C248.665 144.794 248.188 142.672 248.188 139.876C248.188 136.943 248.65 134.783 249.574 133.396C250.507 132.002 251.924 131.305 253.826 131.305C255.682 131.305 257.088 132.032 258.043 133.487C258.998 134.942 259.475 137.072 259.475 139.876ZM250.893 139.876C250.893 142.141 251.124 143.759 251.586 144.729C252.056 145.699 252.803 146.184 253.826 146.184C254.849 146.184 255.595 145.692 256.065 144.707C256.543 143.721 256.781 142.111 256.781 139.876C256.781 137.648 256.543 136.037 256.065 135.044C255.595 134.044 254.849 133.544 253.826 133.544C252.803 133.544 252.056 134.033 251.586 135.01C251.124 135.988 250.893 137.61 250.893 139.876Z" fill="white"/>
<path d="M263.658 136.545C263.658 137.674 263.768 138.515 263.988 139.068C264.208 139.622 264.568 139.898 265.068 139.898C266.068 139.898 266.568 138.781 266.568 136.545C266.568 134.309 266.068 133.192 265.068 133.192C264.568 133.192 264.208 133.468 263.988 134.021C263.768 134.575 263.658 135.416 263.658 136.545ZM268.774 136.522C268.774 138.265 268.459 139.576 267.83 140.455C267.209 141.327 266.288 141.763 265.068 141.763C263.916 141.763 263.022 141.312 262.385 140.41C261.756 139.5 261.442 138.205 261.442 136.522C261.442 133.059 262.651 131.327 265.068 131.327C266.258 131.327 267.171 131.778 267.807 132.68C268.452 133.574 268.774 134.855 268.774 136.522ZM274.48 143.183C274.48 144.313 274.59 145.157 274.81 145.718C275.037 146.279 275.401 146.559 275.901 146.559C276.894 146.559 277.39 145.434 277.39 143.183C277.39 140.963 276.894 139.853 275.901 139.853C275.401 139.853 275.037 140.126 274.81 140.671C274.59 141.217 274.48 142.054 274.48 143.183ZM279.595 143.183C279.595 144.926 279.281 146.234 278.652 147.105C278.023 147.977 277.106 148.412 275.901 148.412C274.749 148.412 273.855 147.965 273.218 147.071C272.582 146.169 272.263 144.873 272.263 143.183C272.263 139.72 273.476 137.989 275.901 137.989C277.068 137.989 277.973 138.436 278.618 139.33C279.269 140.224 279.595 141.509 279.595 143.183ZM276.219 131.566L267 148.185H264.795L274.014 131.566H276.219Z" fill="white"/>
<path d="M175.609 0.281215C156.325 -0.712948 137.028 1.97642 118.75 8.20543L167.783 152.08L175.609 0.281215Z" fill="#4F6D9F"/>
<path d="M140.266 25.9527C141.941 25.9371 143.271 26.368 144.257 27.2455C145.243 28.123 145.743 29.3271 145.757 30.8578C145.774 32.631 145.23 34.0229 144.125 35.0336C143.028 36.0366 141.457 36.5476 139.411 36.5667C137.554 36.5841 136.093 36.2984 135.026 35.7096L135.003 33.2885C135.621 33.6314 136.328 33.8938 137.125 34.0758C137.923 34.2578 138.662 34.3457 139.344 34.3393C140.549 34.328 141.464 34.0505 142.088 33.5066C142.711 32.9627 143.019 32.1717 143.009 31.1335C142.99 29.1481 141.716 28.1672 139.185 28.1909C138.829 28.1942 138.389 28.2362 137.867 28.3168C137.345 28.3899 136.887 28.4738 136.494 28.5684L135.294 27.8748L135.855 19.753L144.493 19.6724L144.516 22.048L138.23 22.1067L137.893 26.2249C138.158 26.177 138.479 26.1209 138.858 26.0568C139.244 25.9926 139.713 25.9579 140.266 25.9527Z" fill="white"/>
<path d="M150.064 24.5995C150.075 25.7285 150.192 26.5687 150.417 27.1198C150.642 27.6709 151.005 27.9441 151.505 27.9395C152.505 27.9301 152.995 26.8078 152.974 24.5723C152.953 22.3369 152.443 21.2238 151.442 21.2331C150.942 21.2378 150.585 21.5177 150.37 22.073C150.156 22.6282 150.054 23.4704 150.064 24.5995ZM155.179 24.529C155.195 26.2719 154.893 27.5858 154.272 28.4707C153.659 29.3479 152.742 29.7922 151.522 29.8036C150.37 29.8144 149.472 29.3718 148.827 28.476C148.19 27.5725 147.863 26.2797 147.847 24.5974C147.815 21.1344 149.008 19.3916 151.425 19.369C152.615 19.3579 153.532 19.8002 154.177 20.6961C154.829 21.5842 155.163 22.8619 155.179 24.529ZM160.947 31.1366C160.958 32.2657 161.075 33.1096 161.3 33.6683C161.533 34.227 161.899 34.5039 162.4 34.4993C163.392 34.49 163.878 33.3601 163.857 31.1095C163.836 28.8892 163.33 27.7837 162.337 27.7929C161.837 27.7976 161.476 28.0738 161.253 28.6215C161.039 29.1692 160.937 30.0075 160.947 31.1366ZM166.062 31.0889C166.078 32.8318 165.776 34.1419 165.155 35.0192C164.535 35.8965 163.622 36.3408 162.417 36.352C161.265 36.3628 160.367 35.924 159.722 35.0358C159.077 34.14 158.746 32.8472 158.731 31.1573C158.698 27.6943 159.895 25.9514 162.32 25.9288C163.487 25.9179 164.396 26.3565 165.049 27.2447C165.709 28.1328 166.047 29.4142 166.062 31.0889ZM162.578 19.5036L153.515 36.2078L151.309 36.2283L160.373 19.5242L162.578 19.5036Z" fill="white"/>
<path d="M110.887 4.64404C92.6522 10.996 75.7945 20.7643 61.2158 33.4265L160.888 148.185L110.887 4.64404Z" fill="#91A1C2"/>
<path d="M87.549 38.8064C89.2238 38.8064 90.5499 39.2498 91.5275 40.1364C92.5051 41.023 92.9939 42.2318 92.9939 43.7625C92.9939 45.5358 92.4369 46.9226 91.3229 47.9229C90.2165 48.9157 88.6402 49.412 86.5941 49.412C84.7375 49.412 83.2787 49.1127 82.2178 48.514V46.0928C82.8316 46.4414 83.5364 46.7104 84.3321 46.8999C85.1278 47.0893 85.8666 47.1841 86.5487 47.1841C87.7536 47.1841 88.6705 46.915 89.2995 46.377C89.9285 45.8389 90.243 45.0508 90.243 44.0126C90.243 42.0271 88.9775 41.0344 86.4464 41.0344C86.0902 41.0344 85.6507 41.0723 85.1278 41.1481C84.6049 41.2163 84.1464 41.2959 83.7523 41.3868L82.5588 40.682L83.1954 32.5659H91.8344V34.9416H85.5484L85.1732 39.0565C85.4385 39.0111 85.7605 38.958 86.1395 38.8974C86.5259 38.8368 86.9958 38.8064 87.549 38.8064Z" fill="white"/>
<path d="M97.3589 37.5447C97.3589 38.6738 97.4688 39.515 97.6885 40.0682C97.9083 40.6214 98.2682 40.898 98.7684 40.898C99.7687 40.898 100.269 39.7802 100.269 37.5447C100.269 35.3091 99.7687 34.1914 98.7684 34.1914C98.2682 34.1914 97.9083 34.468 97.6885 35.0212C97.4688 35.5744 97.3589 36.4155 97.3589 37.5447ZM102.474 37.522C102.474 39.2649 102.16 40.5759 101.531 41.455C100.909 42.3265 99.9885 42.7622 98.7684 42.7622C97.6165 42.7622 96.7223 42.3113 96.0857 41.4095C95.4568 40.5002 95.1423 39.2043 95.1423 37.522C95.1423 34.0587 96.351 32.3271 98.7684 32.3271C99.9582 32.3271 100.871 32.778 101.508 33.6798C102.152 34.5741 102.474 35.8548 102.474 37.522ZM108.18 44.1831C108.18 45.3123 108.29 46.1572 108.51 46.718C108.737 47.2788 109.101 47.5592 109.601 47.5592C110.594 47.5592 111.09 46.4338 111.09 44.1831C111.09 41.9627 110.594 40.8525 109.601 40.8525C109.101 40.8525 108.737 41.1254 108.51 41.671C108.29 42.2166 108.18 43.054 108.18 44.1831ZM113.296 44.1831C113.296 45.9261 112.981 47.2333 112.352 48.1048C111.723 48.9763 110.806 49.412 109.601 49.412C108.449 49.412 107.555 48.9649 106.919 48.0707C106.282 47.1689 105.964 45.873 105.964 44.1831C105.964 40.7199 107.176 38.9883 109.601 38.9883C110.768 38.9883 111.674 39.4354 112.318 40.3296C112.97 41.2239 113.296 42.5084 113.296 44.1831ZM109.92 32.5659L100.701 49.1847H98.4956L107.714 32.5659H109.92Z" fill="white"/>
<path d="M51.4693 41.837C37.6933 55.368 26.6216 71.3999 18.8465 89.0752L157.98 150.278L51.4693 41.837Z" fill="#00A5DB"/>
<path d="M43.5715 79.0554C45.2437 78.9638 46.5922 79.3338 47.6168 80.1656C48.6415 80.9974 49.1957 82.1775 49.2795 83.706C49.3765 85.4767 48.8963 86.8919 47.8388 87.9517C46.7883 89.0035 45.2416 89.5854 43.1986 89.6974C41.3447 89.799 39.8718 89.58 38.7796 89.0403L38.6471 86.6227C39.2791 86.9372 39.9975 87.1672 40.8024 87.3128C41.6073 87.4584 42.3502 87.5126 43.0312 87.4752C44.2344 87.4093 45.1352 87.0905 45.7338 86.5188C46.3324 85.9471 46.6033 85.143 46.5464 84.1063C46.4377 82.1238 45.1198 81.2019 42.5925 81.3404C42.2368 81.3599 41.8 81.4218 41.2821 81.5261C40.7637 81.6228 40.3103 81.7274 39.9218 81.8397L38.6914 81.2014L38.8827 73.0625L47.5088 72.5896L47.6389 74.9618L41.3623 75.3059L41.213 79.4352C41.4753 79.3753 41.794 79.3047 42.169 79.2234C42.5516 79.1417 43.0191 79.0857 43.5715 79.0554Z" fill="white"/>
<path d="M53.2976 77.2586C53.3594 78.386 53.5151 79.2199 53.7649 79.7602C54.0146 80.3006 54.3891 80.5571 54.8885 80.5297C55.8874 80.4749 56.3256 79.3315 56.2032 77.0993C56.0808 74.8671 55.5202 73.7784 54.5214 73.8331C54.022 73.8605 53.6777 74.1564 53.4886 74.7208C53.2994 75.2852 53.2358 76.1311 53.2976 77.2586ZM58.4039 76.9558C58.4993 78.6962 58.257 80.0225 57.6771 80.9346C57.1043 81.8388 56.2088 82.3243 54.9906 82.3911C53.8404 82.4542 52.9229 82.0529 52.2379 81.1873C51.5601 80.3137 51.1751 79.037 51.083 77.3572C50.8935 73.8992 52.0056 72.104 54.4194 71.9717C55.6073 71.9066 56.5438 72.3068 57.2288 73.1724C57.9209 74.03 58.3126 75.2912 58.4039 76.9558ZM64.4663 83.2947C64.5281 84.4221 64.6841 85.2598 64.9342 85.8077C65.1919 86.3552 65.5705 86.6152 66.0699 86.5879C67.0611 86.5335 67.4951 85.3827 67.3719 83.1354C67.2504 80.9183 66.694 79.8369 65.7027 79.8913C65.2033 79.9187 64.8551 80.211 64.6579 80.7682C64.4684 81.3251 64.4045 82.1672 64.4663 83.2947ZM69.5739 83.0146C69.6693 84.755 69.4268 86.0775 68.8465 86.9821C68.2661 87.8867 67.3744 88.372 66.1713 88.4379C65.0211 88.501 64.1038 88.1035 63.4192 87.2455C62.7343 86.3799 62.3455 85.1034 62.253 83.416C62.0634 79.958 63.1793 78.1626 65.6007 78.0299C66.766 77.966 67.6947 78.3628 68.3868 79.2205C69.0865 80.0777 69.4822 81.3424 69.5739 83.0146ZM65.5669 71.5996L57.2717 88.6982L55.0698 88.8189L63.365 71.7203L65.5669 71.5996Z" fill="white"/>
<path d="M14.1717 98.2852C0.589708 130.413 -1.52952 166.234 8.16958 199.738L154.175 157.472L14.1717 98.2852Z" fill="#7CD4FA"/>
<path d="M24.9806 158.047L22.311 158.142L21.931 147.418C21.8857 146.138 21.88 145.122 21.914 144.37C21.7463 144.558 21.5376 144.767 21.2878 144.995C21.0457 145.224 20.2222 145.951 18.8173 147.176L17.4168 145.531L22.1656 141.518L24.3921 141.439L24.9806 158.047Z" fill="white"/>
<path d="M41.397 149.151C41.4993 152.037 41.1095 154.196 40.2276 155.63C39.3533 157.064 37.9619 157.815 36.0534 157.883C34.2055 157.948 32.7788 157.274 31.7733 155.862C30.7678 154.449 30.2155 152.345 30.1165 149.551C30.0126 146.62 30.3981 144.445 31.273 143.026C32.1551 141.6 33.5467 140.853 35.4476 140.786C37.3031 140.72 38.7337 141.397 39.7394 142.817C40.7452 144.238 41.2977 146.349 41.397 149.151ZM32.8202 149.455C32.9004 151.719 33.1887 153.328 33.685 154.281C34.1889 155.234 34.9521 155.692 35.9745 155.656C36.9969 155.62 37.7254 155.101 38.1601 154.1C38.6023 153.098 38.7839 151.481 38.7047 149.246C38.6258 147.02 38.3302 145.419 37.8179 144.444C37.313 143.461 36.5493 142.987 35.5269 143.024C34.5045 143.06 33.7758 143.575 33.3409 144.568C32.9135 145.562 32.74 147.191 32.8202 149.455Z" fill="white"/>
<path d="M45.4596 145.674C45.4996 146.803 45.6392 147.64 45.8784 148.185C46.1176 148.73 46.4871 148.993 46.987 148.976C47.9867 148.94 48.4469 147.806 48.3678 145.571C48.2886 143.337 47.7492 142.238 46.7495 142.273C46.2497 142.291 45.8997 142.58 45.6997 143.141C45.4996 143.701 45.4196 144.546 45.4596 145.674ZM50.5708 145.471C50.6325 147.212 50.3647 148.534 49.7672 149.435C49.1771 150.328 48.2723 150.796 47.053 150.839C45.9018 150.88 44.9922 150.461 44.3241 149.582C43.6633 148.695 43.3032 147.412 43.2436 145.73C43.1209 142.269 44.2676 140.496 46.6835 140.41C47.8725 140.368 48.8011 140.786 49.4692 141.665C50.1446 142.536 50.5118 143.804 50.5708 145.471ZM56.5094 151.926C56.5494 153.054 56.6892 153.894 56.9287 154.447C57.1757 155 57.5492 155.267 58.049 155.249C59.0411 155.214 59.4973 154.072 59.4176 151.822C59.339 149.603 58.8036 148.512 57.8115 148.547C57.3117 148.564 56.9578 148.85 56.7499 149.403C56.5496 149.956 56.4695 150.797 56.5094 151.926ZM61.6215 151.744C61.6832 153.486 61.4152 154.804 60.8175 155.697C60.2197 156.59 59.3188 157.058 58.1146 157.101C56.9635 157.142 56.054 156.726 55.3861 155.855C54.718 154.977 54.3541 153.693 54.2942 152.004C54.1716 148.543 55.322 146.77 57.7455 146.684C58.9118 146.642 59.8326 147.057 60.5081 147.928C61.191 148.799 61.5622 150.071 61.6215 151.744ZM57.8362 140.254L49.2116 157.189L47.0078 157.267L55.6323 140.332L57.8362 140.254Z" fill="white"/>
<path d="M16.4086 212.762C28.4237 245.508 51.3354 273.125 81.2994 290.979L159.106 160.403L16.4086 212.762Z" fill="#F19161"/>
<path d="M59.7943 241.333L57.1262 241.464L56.6039 230.746C56.5415 229.466 56.5224 228.451 56.5464 227.698C56.3812 227.889 56.1752 228.1 55.9286 228.332C55.6895 228.563 54.8757 229.301 53.4872 230.545L52.065 228.918L56.7601 224.843L58.9854 224.734L59.7943 241.333Z" fill="white"/>
<path d="M76.0912 232.22C76.2317 235.104 75.8706 237.269 75.0078 238.714C74.1526 240.16 72.7713 240.929 70.8639 241.022C69.017 241.112 67.5815 240.457 66.5573 239.058C65.5332 237.659 64.953 235.562 64.8169 232.769C64.6742 229.84 65.0308 227.66 65.8867 226.23C66.7498 224.792 68.1313 224.027 70.0312 223.934C71.8856 223.844 73.3251 224.502 74.3496 225.909C75.3742 227.316 75.9547 229.419 76.0912 232.22ZM67.5191 232.638C67.6294 234.901 67.939 236.506 68.4479 237.452C68.9644 238.398 69.7336 238.846 70.7555 238.796C71.7773 238.747 72.4989 238.218 72.9202 237.211C73.3491 236.204 73.5091 234.584 73.4003 232.351C73.2919 230.126 72.9751 228.529 72.4499 227.561C71.9319 226.584 71.162 226.121 70.1402 226.171C69.1183 226.221 68.3966 226.745 67.9749 227.745C67.5607 228.744 67.4088 230.375 67.5191 232.638Z" fill="white"/>
<path d="M80.1072 228.69C80.1622 229.818 80.3129 230.652 80.5593 231.194C80.8057 231.736 81.1787 231.995 81.6783 231.97C82.6774 231.922 83.1226 230.781 83.0138 228.548C82.9049 226.315 82.351 225.223 81.3518 225.272C80.8523 225.296 80.5062 225.59 80.3136 226.153C80.1211 226.716 80.0523 227.562 80.1072 228.69ZM85.2153 228.418C85.3001 230.159 85.0498 231.484 84.4644 232.392C83.8861 233.293 82.9877 233.773 81.769 233.832C80.6185 233.889 79.7034 233.482 79.0237 232.612C78.3512 231.734 77.974 230.455 77.8921 228.775C77.7236 225.316 78.8465 223.527 81.2611 223.41C82.4495 223.352 83.3835 223.758 84.0632 224.628C84.7501 225.489 85.1341 226.753 85.2153 228.418ZM91.2391 234.794C91.294 235.921 91.4449 236.76 91.6917 237.309C91.9461 237.858 92.3231 238.121 92.8226 238.096C93.8142 238.048 94.2552 236.9 94.1456 234.652C94.0375 232.434 93.4877 231.349 92.4962 231.398C91.9966 231.422 91.6466 231.712 91.4461 232.268C91.2531 232.824 91.1841 233.666 91.2391 234.794ZM96.3482 234.545C96.4331 236.285 96.1826 237.606 95.5968 238.508C95.011 239.409 94.1163 239.888 92.9128 239.947C91.7623 240.003 90.8474 239.6 90.168 238.738C89.4883 237.868 89.1074 236.589 89.0251 234.901C88.8565 231.442 89.9833 229.654 92.4054 229.536C93.5711 229.479 94.4974 229.881 95.1843 230.743C95.8787 231.605 96.2667 232.872 96.3482 234.545ZM92.4107 223.105L84.0118 240.153L81.8092 240.261L90.2081 223.213L92.4107 223.105Z" fill="white"/>
<path d="M103.748 288.989C135.371 303.708 171.094 307.102 204.923 298.604L167.887 151.185L103.748 288.989Z" fill="#F0611B"/>
<path d="M147.876 276.319L145.208 276.45L144.681 265.732C144.618 264.453 144.598 263.437 144.622 262.685C144.457 262.875 144.251 263.086 144.004 263.318C143.765 263.55 142.952 264.288 141.564 265.532L140.141 263.907L144.834 259.829L147.06 259.72L147.876 276.319Z" fill="white"/>
<path d="M164.169 267.198C164.31 270.082 163.95 272.247 163.088 273.693C162.234 275.138 160.853 275.908 158.945 276.002C157.098 276.093 155.663 275.439 154.638 274.04C153.613 272.641 153.032 270.545 152.895 267.752C152.751 264.823 153.106 262.643 153.962 261.213C154.824 259.774 156.205 259.008 158.105 258.915C159.959 258.824 161.399 259.481 162.424 260.888C163.449 262.294 164.031 264.397 164.169 267.198ZM155.597 267.619C155.708 269.883 156.018 271.487 156.528 272.433C157.045 273.379 157.814 273.827 158.836 273.777C159.858 273.726 160.579 273.198 161 272.191C161.428 271.183 161.588 269.563 161.478 267.33C161.368 265.105 161.051 263.508 160.525 262.54C160.007 261.564 159.237 261.101 158.215 261.151C157.193 261.202 156.472 261.727 156.05 262.726C155.637 263.725 155.485 265.356 155.597 267.619Z" fill="white"/>
<path d="M168.183 263.666C168.239 264.794 168.39 265.628 168.636 266.17C168.883 266.712 169.256 266.97 169.756 266.946C170.755 266.897 171.199 265.756 171.09 263.523C170.98 261.29 170.425 260.198 169.426 260.247C168.927 260.272 168.581 260.566 168.388 261.129C168.196 261.692 168.128 262.538 168.183 263.666ZM173.291 263.392C173.377 265.133 173.127 266.458 172.542 267.367C171.964 268.267 171.066 268.748 169.847 268.808C168.697 268.864 167.781 268.458 167.101 267.589C166.428 266.711 166.051 265.432 165.968 263.752C165.798 260.293 166.92 258.504 169.335 258.385C170.523 258.327 171.457 258.732 172.137 259.602C172.825 260.463 173.209 261.727 173.291 263.392ZM179.318 269.765C179.373 270.893 179.524 271.731 179.771 272.28C180.026 272.829 180.403 273.092 180.903 273.067C181.894 273.018 182.335 271.87 182.224 269.622C182.115 267.404 181.565 266.32 180.573 266.368C180.074 266.393 179.724 266.683 179.524 267.239C179.331 267.795 179.262 268.637 179.318 269.765ZM184.427 269.514C184.512 271.254 184.262 272.575 183.677 273.477C183.092 274.378 182.197 274.858 180.994 274.918C179.843 274.974 178.928 274.571 178.248 273.71C177.568 272.84 177.187 271.562 177.104 269.874C176.934 266.415 178.06 264.626 180.482 264.506C181.647 264.449 182.574 264.851 183.261 265.713C183.956 266.574 184.344 267.841 184.427 269.514ZM180.484 258.076L172.093 275.128L169.89 275.236L178.282 258.184L180.484 258.076Z" fill="white"/>
</svg>
