<svg width="30" height="31" viewBox="0 0 30 31" fill="none" xmlns="http://www.w3.org/2000/svg">
<path d="M14.9 5.48508C16.3622 3.7073 17.938 2.63343 19.904 2.16244C25.0877 0.919024 30.3544 4.87881 29.9813 9.98435C29.8557 11.7159 29.0976 13.4953 28.2681 15.0573C26.5345 18.3217 17.8956 27.644 14.7559 29.9321C14.4845 29.7163 14.1808 29.504 13.9128 29.2522C9.74347 25.3181 5.8642 21.1186 2.57519 16.3984C1.8492 15.3554 1.23687 14.2079 0.7263 13.0415C-1.89948 7.0351 3.03489 1.68119 8.47812 1.97234C10.841 2.09737 12.8442 2.92458 14.4353 4.70749C14.6066 4.89932 14.7067 5.15624 14.9 5.48508ZM14.4726 14.7662C13.9129 16.3658 13.4108 17.7942 12.8561 19.3802H16.7608C15.8262 21.8705 14.9459 24.2185 14.0638 26.5666L14.2724 26.6591C16.9661 23.0162 19.6597 19.3751 22.5093 15.5198H17.8685C18.5181 13.9595 19.0999 12.5653 19.7818 10.9314H15.3326C15.8906 9.36774 16.3741 8.01133 16.9101 6.50758C15.531 6.50758 14.3386 6.48359 13.1478 6.52812C12.9053 6.53669 12.5355 6.7422 12.4575 6.94772C11.4821 9.50821 10.5492 12.0841 9.56539 14.7662H14.4726Z" fill="#18316F"/>
</svg>
