<svg width="30" height="31" viewBox="0 0 30 31" fill="none" xmlns="http://www.w3.org/2000/svg">
<path fill-rule="evenodd" clip-rule="evenodd" d="M6.1444 1.21885C3.52537 1.94364 1.80705 4.19717 1.80705 6.90725V8.24793H7.22874H12.6504V9.25028V10.2526L6.59621 10.3217L0.541992 10.3908V11.6513V12.9118L6.59621 12.9809L12.6504 13.0499V14.4304V15.811H9.04283C5.49633 15.811 5.43163 15.8215 5.20862 16.4412C5.08392 16.7878 5.08392 17.3551 5.20862 17.7017C5.43163 18.3214 5.49633 18.332 9.04283 18.332H12.6504V19.4548V20.5779L10.2107 20.6523L7.77091 20.7269L7.65705 21.8364C7.51753 23.1965 7.83814 23.3652 10.5721 23.3702L12.6504 23.374V24.5747C12.6504 25.5781 12.5167 25.8163 11.8372 26.0243C10.4543 26.4473 10.536 28.6681 11.9344 28.6681C12.5069 28.6681 12.6504 28.8388 12.6504 29.5197C12.6504 30.6289 13.3256 30.9857 15.2442 30.8894C16.8042 30.8112 16.8074 30.8089 16.918 29.7395C17.0149 28.807 17.1389 28.6681 17.8737 28.6681C18.7928 28.6681 19.1564 28.2476 19.1564 27.1852C19.1564 26.3934 18.5698 25.895 17.6384 25.895C17.0987 25.895 16.9878 25.6802 16.9878 24.6345V23.374H19.2649C21.8348 23.374 22.4095 23.1206 22.4095 21.9874C22.4095 20.8542 21.8348 20.6009 19.2649 20.6009H16.9878V19.4664V18.332H20.783H24.5781V17.0803V15.8286L20.8733 15.7568L17.1685 15.6849L17.0597 14.3674L16.9505 13.0499L23.2043 12.9809L29.4577 12.9118V11.6513V10.3908L23.2227 10.3217L16.9878 10.2529V9.25028V8.24793H22.7995H28.6115L28.3697 7.4286C27.0056 2.80809 26.2972 1.84658 24.0396 1.55112C22.2161 1.31238 19.1767 1.86019 17.3904 2.74935C16.2689 3.30776 15.2644 3.57322 13.9567 3.65666C11.8722 3.79003 11.9619 3.53641 14.2166 2.92078L15.7227 2.50961L14.2769 2.07246C10.6083 0.962714 8.04344 0.693471 6.1444 1.21885Z" fill="#18316F"/>
</svg>
