<svg width="157" height="39" viewBox="0 0 157 39" fill="none" xmlns="http://www.w3.org/2000/svg">
<path d="M47.4635 37.4601C47.4635 37.304 47.475 37.1602 47.4987 37.0286C47.5225 36.8962 47.5584 36.7538 47.6059 36.6006H48.7092V36.9538C48.7092 37.1494 48.725 37.3227 48.7567 37.473C48.7876 37.6234 48.8387 37.75 48.9099 37.8535C48.9811 37.9564 49.076 38.0348 49.1954 38.0873C49.3141 38.1398 49.4594 38.1664 49.632 38.1664C49.9024 38.1664 50.1095 38.1081 50.252 37.9938C50.3951 37.8794 50.4656 37.7111 50.4656 37.4896C50.4656 37.3767 50.4562 37.2724 50.4361 37.1767C50.416 37.0825 50.3814 36.9883 50.3318 36.8941C50.2822 36.8006 50.2153 36.702 50.1311 36.5992C50.047 36.4956 49.9391 36.3798 49.8075 36.2518L48.3251 34.8867C48.0612 34.6263 47.8583 34.3631 47.7159 34.0984C47.5735 33.8323 47.5016 33.5504 47.5016 33.2497C47.5016 33.0088 47.5498 32.7872 47.6469 32.5859C47.744 32.3845 47.8842 32.2111 48.0669 32.0651C48.2496 31.9191 48.4762 31.8055 48.7452 31.7249C49.0142 31.6437 49.3191 31.6034 49.6593 31.6034C50.0722 31.6034 50.4174 31.6487 50.6943 31.7393C50.9705 31.8307 51.1906 31.9493 51.3553 32.0968C51.5207 32.2442 51.6365 32.4097 51.7041 32.5923C51.7717 32.775 51.8055 32.9584 51.8055 33.1433C51.8055 33.2993 51.7897 33.4432 51.7588 33.5748C51.7278 33.7071 51.6926 33.8517 51.6516 34.0107H50.554V33.6661C50.554 33.2806 50.4828 32.985 50.3404 32.7793C50.1973 32.5744 49.965 32.4708 49.6428 32.4708C49.3752 32.4708 49.176 32.529 49.0444 32.6434C48.9128 32.7585 48.8466 32.9124 48.8466 33.1051C48.8466 33.2073 48.8567 33.2993 48.8768 33.3813C48.8969 33.4633 48.9264 33.5396 48.9645 33.6086C49.0027 33.6784 49.0501 33.746 49.1048 33.8107C49.1594 33.8762 49.222 33.9438 49.2911 34.015L50.9439 35.5635C51.2438 35.8663 51.4747 36.1576 51.6358 36.4374C51.7962 36.7164 51.8767 37.012 51.8767 37.3235C51.8767 37.5824 51.8249 37.814 51.7206 38.0218C51.6164 38.2282 51.4675 38.4045 51.2733 38.549C51.0791 38.6929 50.8446 38.8044 50.5706 38.8828C50.2958 38.9604 49.9866 38.9993 49.6428 38.9993C49.2177 38.9993 48.866 38.9561 48.5855 38.8677C48.3057 38.7799 48.0828 38.6641 47.9159 38.5188C47.7498 38.3742 47.6325 38.2095 47.5649 38.0254C47.4973 37.8413 47.4635 37.6529 47.4635 37.4601Z" fill="#ED611A"/>
<path d="M55.4856 38.9957C55.3353 38.9957 55.1727 38.9863 54.9965 38.9676C54.821 38.9496 54.6477 38.9108 54.4751 38.8511C54.3039 38.7914 54.1377 38.7073 53.9788 38.5979C53.8191 38.4886 53.6782 38.3448 53.5559 38.1664C53.4336 37.9873 53.3358 37.7672 53.2624 37.5047C53.1891 37.2429 53.1524 36.93 53.1524 36.5668V33.9941C53.1524 33.6288 53.1898 33.3152 53.2653 33.0562C53.3401 32.7966 53.4394 32.5787 53.5645 32.401C53.6882 32.2241 53.8306 32.0831 53.9903 31.9781C54.1492 31.8731 54.3154 31.7933 54.4894 31.7379C54.6635 31.6825 54.8361 31.6465 55.008 31.6293C55.1799 31.6127 55.3396 31.6034 55.4856 31.6034C55.6244 31.6034 55.779 31.6113 55.9495 31.6271C56.1192 31.6429 56.2897 31.6767 56.4602 31.7293C56.6306 31.7818 56.7953 31.8594 56.9571 31.963C57.1182 32.0666 57.2607 32.2068 57.3851 32.3845C57.5095 32.5614 57.6088 32.7815 57.6843 33.0433C57.7591 33.3058 57.7972 33.6223 57.7972 33.9941V36.5668C57.7972 36.9272 57.7584 37.2371 57.6814 37.4961C57.6045 37.7557 57.5038 37.9758 57.3801 38.1556C57.2549 38.3361 57.1118 38.4807 56.9485 38.5893C56.786 38.6986 56.6191 38.7835 56.4494 38.8446C56.2789 38.9058 56.1099 38.946 55.9409 38.9662C55.7726 38.9856 55.6208 38.9957 55.4856 38.9957ZM55.4856 38.1664C55.6244 38.1664 55.7467 38.1484 55.851 38.111C55.9552 38.0743 56.0408 38.0103 56.1084 37.9197C56.1768 37.8291 56.2278 37.709 56.2624 37.5601C56.2976 37.4112 56.3149 37.2235 56.3149 36.9969V33.692C56.3149 33.4597 56.2976 33.2655 56.2624 33.1095C56.2278 32.9534 56.1768 32.8275 56.1084 32.7326C56.0408 32.6384 55.9552 32.5708 55.851 32.5305C55.7467 32.4916 55.6244 32.4715 55.4856 32.4715C55.3425 32.4715 55.2188 32.4916 55.1123 32.5305C55.0066 32.5708 54.9181 32.6384 54.8491 32.7326C54.7793 32.8275 54.7268 32.9534 54.6923 33.1095C54.6578 33.2655 54.6398 33.4597 54.6398 33.692V36.9969C54.6398 37.2235 54.6578 37.4112 54.6923 37.5601C54.7268 37.709 54.7793 37.8291 54.8491 37.9197C54.9181 38.0103 55.0066 38.0743 55.1123 38.111C55.2188 38.1484 55.3425 38.1664 55.4856 38.1664Z" fill="#ED611A"/>
<path d="M59.4473 31.6673H60.88V36.9925C60.88 37.2191 60.8944 37.4075 60.9239 37.5578C60.9533 37.7089 61.0001 37.8283 61.0634 37.9174C61.1281 38.0066 61.2101 38.0706 61.3108 38.1087C61.4115 38.1469 61.5316 38.1663 61.6704 38.1663C61.8099 38.1663 61.9315 38.1469 62.0358 38.1087C62.1401 38.0706 62.2257 38.0066 62.2933 37.9174C62.3616 37.8283 62.4127 37.7089 62.4472 37.5578C62.4824 37.4075 62.4997 37.2191 62.4997 36.9925V31.6673H63.9159V36.6991C63.9159 37.0536 63.8792 37.3564 63.8065 37.6089C63.7332 37.8613 63.6361 38.0728 63.5153 38.2425C63.3944 38.413 63.2556 38.5475 63.101 38.6467C62.9449 38.746 62.7838 38.8222 62.6177 38.8747C62.4508 38.9265 62.2854 38.9596 62.1207 38.974C61.956 38.9891 61.8056 38.9956 61.6704 38.9956C61.5352 38.9956 61.3863 38.9891 61.223 38.974C61.0605 38.9596 60.8965 38.9265 60.7318 38.8747C60.5671 38.8222 60.4082 38.746 60.2543 38.6467C60.1003 38.5475 59.963 38.413 59.8421 38.2425C59.7213 38.0728 59.6256 37.8621 59.5544 37.611C59.4825 37.36 59.4473 37.0565 59.4473 36.6991V31.6673Z" fill="#ED611A"/>
<path d="M65.8225 31.6673H67.3653C67.5415 31.6673 67.7342 31.6731 67.9442 31.6846C68.155 31.6961 68.3657 31.7234 68.5764 31.7673C68.7865 31.8111 68.99 31.8773 69.1856 31.9651C69.3813 32.0528 69.5546 32.1736 69.7071 32.3268C69.8588 32.4793 69.9804 32.6721 70.0717 32.903C70.1631 33.1338 70.2091 33.4136 70.2091 33.743V33.9257C70.2091 34.4788 70.107 34.929 69.902 35.2764C69.697 35.6231 69.3949 35.8741 68.9958 36.0266L70.5004 38.9316H68.9958L67.75 36.2143H67.2178V38.9316H65.8225V31.6673ZM67.4314 35.4188C67.6803 35.4188 67.891 35.3973 68.0629 35.3548C68.2348 35.3124 68.3743 35.2412 68.4801 35.1398C68.5865 35.0391 68.6628 34.906 68.7102 34.7406C68.7584 34.5744 68.7821 34.3695 68.7821 34.1256V33.551C68.7821 33.3647 68.7599 33.2029 68.716 33.0662C68.6721 32.931 68.598 32.8188 68.4937 32.7303C68.3894 32.6433 68.2514 32.5778 68.0795 32.5347C67.9068 32.4923 67.6911 32.4714 67.4314 32.4714H67.2178V35.4188H67.4314Z" fill="#ED611A"/>
<path d="M73.9332 38.9957C73.7872 38.9957 73.6282 38.987 73.4585 38.9676C73.288 38.9496 73.1183 38.9108 72.9479 38.8511C72.7781 38.7914 72.6148 38.7073 72.4595 38.5987C72.3034 38.4893 72.1668 38.3448 72.0474 38.1664C71.928 37.9873 71.8338 37.7679 71.7618 37.5047C71.6906 37.2429 71.6554 36.93 71.6554 36.5676V33.9941C71.6554 33.6288 71.6914 33.3159 71.7647 33.0562C71.8381 32.7966 71.9352 32.5787 72.056 32.401C72.1768 32.2248 72.3156 32.0831 72.4732 31.9781C72.6307 31.8731 72.7932 31.7933 72.9615 31.7379C73.1298 31.6825 73.2974 31.6465 73.4635 31.6293C73.6304 31.6127 73.785 31.6041 73.9275 31.6041C74.3015 31.6041 74.6129 31.6444 74.8639 31.725C75.1142 31.8062 75.3156 31.9163 75.4673 32.0572C75.6198 32.1975 75.7277 32.3607 75.791 32.5477C75.8557 32.7355 75.8874 32.934 75.8874 33.144C75.8874 33.2994 75.8773 33.4439 75.8572 33.5755C75.837 33.7072 75.8068 33.8524 75.7665 34.0114H74.6136V33.6417C74.6136 33.2411 74.5575 32.9419 74.4439 32.7434C74.3302 32.5456 74.1641 32.4463 73.944 32.4463C73.8124 32.4463 73.6973 32.4658 73.5988 32.5053C73.4995 32.5456 73.4175 32.6132 73.3513 32.7074C73.2852 32.8024 73.2348 32.9282 73.2003 33.0843C73.1658 33.2404 73.1478 33.4338 73.1478 33.6669V36.984C73.1478 37.2113 73.1615 37.3997 73.1895 37.55C73.2168 37.7003 73.2614 37.8212 73.3233 37.9111C73.3866 38.0024 73.4671 38.0664 73.5678 38.1046C73.6685 38.1434 73.7901 38.1621 73.9332 38.1621C74.0245 38.1621 74.113 38.1463 74.1972 38.1132C74.2806 38.0808 74.3547 38.0297 74.4194 37.9607C74.4827 37.8909 74.5345 37.8032 74.5726 37.6967C74.6107 37.5903 74.6301 37.4644 74.6301 37.3199V36.61H75.9312V37.2817C75.9312 37.8658 75.7593 38.2966 75.4155 38.5749C75.0718 38.8525 74.5769 38.9928 73.9332 38.9957Z" fill="#ED611A"/>
<path d="M78.8111 31.6673H77.3892V38.9316H78.8111V31.6673Z" fill="#ED611A"/>
<path d="M80.7508 31.6673H81.9037L84.1765 36.5286H84.2096C84.1988 36.415 84.1837 36.2898 84.1657 36.1503C84.147 36.0115 84.1305 35.8532 84.1161 35.6763C84.1017 35.4987 84.0887 35.298 84.078 35.0743C84.0672 34.8506 84.0614 34.5975 84.0614 34.317V31.6673H85.3345V38.9316H84.1708L81.9095 34.1983H81.8649C81.8764 34.3256 81.8915 34.4644 81.9095 34.6126C81.9282 34.7614 81.944 34.9369 81.9591 35.1376C81.9735 35.3397 81.9857 35.5742 81.9972 35.8417C82.008 36.11 82.0138 36.4279 82.0138 36.7969V38.9316H80.7508V31.6673Z" fill="#ED611A"/>
<path d="M89.1694 39C89.0594 39 88.9314 38.9906 88.7854 38.9719C88.6387 38.954 88.4876 38.9151 88.3323 38.8554C88.1769 38.7957 88.0237 38.7116 87.8741 38.6022C87.7238 38.4936 87.5893 38.3491 87.4706 38.1685C87.3512 37.9887 87.2556 37.7672 87.1822 37.5047C87.1088 37.2429 87.0729 36.93 87.0729 36.5675V33.9941C87.0729 33.6288 87.111 33.3152 87.188 33.0562C87.2649 32.7966 87.367 32.5787 87.4951 32.401C87.6231 32.2241 87.7705 32.0831 87.9367 31.9781C88.1035 31.8731 88.2769 31.7933 88.456 31.7379C88.6351 31.6825 88.8127 31.6465 88.9882 31.6293C89.1637 31.6127 89.327 31.6034 89.4773 31.6034C89.8577 31.6034 90.1785 31.6444 90.4403 31.7249C90.7021 31.8062 90.9143 31.9162 91.0776 32.0572C91.2394 32.1975 91.3573 32.3607 91.4286 32.5477C91.4998 32.7355 91.5357 32.934 91.5357 33.144C91.5357 33.2993 91.5235 33.4432 91.4998 33.5755C91.476 33.7072 91.4444 33.8524 91.4041 34.0107H90.267V33.6669C90.267 32.87 89.9915 32.4715 89.4384 32.4715C89.2888 32.4715 89.1587 32.4916 89.0486 32.5305C88.9386 32.5708 88.8472 32.6384 88.7746 32.7333C88.7012 32.8275 88.6466 32.9534 88.6128 33.1095C88.5775 33.2655 88.5603 33.4597 88.5603 33.692V36.984C88.5603 37.2112 88.5775 37.3997 88.6128 37.55C88.6466 37.6996 88.6998 37.8204 88.7717 37.9111C88.8429 38.0017 88.9321 38.0664 89.04 38.1045C89.1486 38.1434 89.2773 38.1621 89.4276 38.1621C89.5852 38.1621 89.7204 38.1304 89.834 38.0664C89.9469 38.0024 90.0404 37.9154 90.1138 37.8046C90.1872 37.6946 90.2404 37.5644 90.2756 37.4134C90.3101 37.263 90.3274 37.1005 90.3274 36.925V35.9756H89.5981V35.2528H91.7112V38.9317H90.7669L90.6137 38.2434C90.4339 38.5123 90.2282 38.7058 89.9958 38.8238C89.7635 38.941 89.4881 39 89.1694 39Z" fill="#ED611A"/>
<path d="M97.8074 37.4601C97.8074 37.304 97.8189 37.1602 97.8427 37.0286C97.8664 36.8962 97.9024 36.7538 97.9498 36.6006H99.0531V36.9538C99.0531 37.1494 99.069 37.3227 99.1006 37.473C99.1315 37.6234 99.1826 37.75 99.2538 37.8535C99.325 37.9564 99.42 38.0348 99.5394 38.0873C99.658 38.1398 99.8033 38.1664 99.9759 38.1664C100.246 38.1664 100.453 38.1081 100.596 37.9938C100.739 37.8794 100.81 37.7111 100.81 37.4896C100.81 37.3767 100.8 37.2724 100.78 37.1767C100.76 37.0825 100.725 36.9883 100.676 36.8941C100.626 36.8006 100.559 36.702 100.475 36.5992C100.391 36.4956 100.283 36.3798 100.151 36.2518L98.6691 34.8867C98.4051 34.6263 98.2023 34.3631 98.0599 34.0984C97.9175 33.8323 97.8455 33.5504 97.8455 33.2497C97.8455 33.0088 97.8937 32.7872 97.9908 32.5859C98.0879 32.3845 98.2282 32.2111 98.4109 32.0651C98.5936 31.9191 98.8201 31.8055 99.0891 31.7249C99.3581 31.6437 99.6631 31.6034 100.003 31.6034C100.416 31.6034 100.761 31.6487 101.038 31.7393C101.314 31.8307 101.534 31.9493 101.699 32.0968C101.865 32.2442 101.98 32.4097 102.048 32.5923C102.116 32.775 102.149 32.9584 102.149 33.1433C102.149 33.2993 102.134 33.4432 102.103 33.5748C102.072 33.7071 102.037 33.8517 101.996 34.0107H100.898V33.6661C100.898 33.2806 100.827 32.985 100.684 32.7793C100.541 32.5744 100.309 32.4708 99.9867 32.4708C99.7192 32.4708 99.5199 32.529 99.3883 32.6434C99.2567 32.7585 99.1905 32.9124 99.1905 33.1051C99.1905 33.2073 99.2006 33.2993 99.2207 33.3813C99.2409 33.4633 99.2704 33.5396 99.3085 33.6086C99.3466 33.6784 99.3941 33.746 99.4487 33.8107C99.5034 33.8762 99.566 33.9438 99.635 34.015L101.288 35.5635C101.588 35.8663 101.819 36.1576 101.98 36.4374C102.14 36.7164 102.221 37.012 102.221 37.3235C102.221 37.5824 102.169 37.814 102.065 38.0218C101.96 38.2282 101.811 38.4045 101.617 38.549C101.423 38.6929 101.189 38.8044 100.915 38.8828C100.64 38.9604 100.331 38.9993 99.9867 38.9993C99.5616 38.9993 99.2099 38.9561 98.9294 38.8677C98.6497 38.7799 98.4267 38.6641 98.2598 38.5188C98.0937 38.3742 97.9765 38.2095 97.9089 38.0254C97.8412 37.8413 97.8074 37.6529 97.8074 37.4601Z" fill="#ED611A"/>
<path d="M105.83 38.9957C105.679 38.9957 105.517 38.9863 105.341 38.9676C105.165 38.9496 104.992 38.9108 104.819 38.8511C104.648 38.7914 104.482 38.7073 104.323 38.5979C104.163 38.4886 104.022 38.3448 103.9 38.1664C103.778 37.9873 103.68 37.7672 103.607 37.5047C103.533 37.2429 103.497 36.93 103.497 36.5668V33.9941C103.497 33.6288 103.534 33.3152 103.609 33.0562C103.684 32.7966 103.783 32.5787 103.909 32.401C104.032 32.2241 104.175 32.0831 104.334 31.9781C104.493 31.8731 104.66 31.7933 104.834 31.7379C105.008 31.6825 105.18 31.6465 105.352 31.6293C105.524 31.6127 105.684 31.6034 105.83 31.6034C105.969 31.6034 106.123 31.6113 106.294 31.6271C106.463 31.6429 106.634 31.6767 106.804 31.7293C106.975 31.7818 107.139 31.8594 107.301 31.963C107.462 32.0666 107.605 32.2068 107.729 32.3845C107.854 32.5614 107.953 32.7815 108.028 33.0433C108.103 33.3058 108.141 33.6223 108.141 33.9941V36.5668C108.141 36.9272 108.102 37.2371 108.026 37.4961C107.949 37.7557 107.848 37.9758 107.723 38.1556C107.599 38.3361 107.456 38.4807 107.293 38.5893C107.13 38.6986 106.963 38.7835 106.793 38.8446C106.623 38.9058 106.454 38.946 106.285 38.9662C106.117 38.9856 105.965 38.9957 105.83 38.9957ZM105.83 38.1664C105.969 38.1664 106.091 38.1484 106.195 38.111C106.299 38.0743 106.385 38.0103 106.453 37.9197C106.521 37.8291 106.572 37.709 106.606 37.5601C106.642 37.4112 106.659 37.2235 106.659 36.9969V33.692C106.659 33.4597 106.642 33.2655 106.606 33.1095C106.572 32.9534 106.521 32.8275 106.453 32.7326C106.385 32.6384 106.299 32.5708 106.195 32.5305C106.091 32.4916 105.969 32.4715 105.83 32.4715C105.687 32.4715 105.563 32.4916 105.456 32.5305C105.351 32.5708 105.262 32.6384 105.193 32.7326C105.123 32.8275 105.071 32.9534 105.036 33.1095C105.002 33.2655 104.984 33.4597 104.984 33.692V36.9969C104.984 37.2235 105.002 37.4112 105.036 37.5601C105.071 37.709 105.123 37.8291 105.193 37.9197C105.262 38.0103 105.351 38.0743 105.456 38.111C105.563 38.1484 105.687 38.1664 105.83 38.1664Z" fill="#ED611A"/>
<path d="M109.823 31.6673H111.245V38.0642H113.182V38.9316H109.823V31.6673Z" fill="#ED611A"/>
<path d="M114.388 31.6673H115.821V36.9925C115.821 37.2191 115.835 37.4075 115.864 37.5578C115.894 37.7089 115.941 37.8283 116.004 37.9174C116.069 38.0066 116.151 38.0706 116.251 38.1087C116.352 38.1469 116.472 38.1663 116.611 38.1663C116.751 38.1663 116.872 38.1469 116.976 38.1087C117.081 38.0706 117.166 38.0066 117.234 37.9174C117.302 37.8283 117.353 37.7089 117.388 37.5578C117.423 37.4075 117.44 37.2191 117.44 36.9925V31.6673H118.856V36.6991C118.856 37.0536 118.82 37.3564 118.747 37.6089C118.674 37.8613 118.577 38.0728 118.456 38.2425C118.335 38.413 118.196 38.5475 118.042 38.6467C117.886 38.746 117.724 38.8222 117.558 38.8747C117.391 38.9265 117.226 38.9596 117.061 38.974C116.897 38.9891 116.746 38.9956 116.611 38.9956C116.476 38.9956 116.327 38.9891 116.164 38.974C116.001 38.9596 115.837 38.9265 115.672 38.8747C115.508 38.8222 115.349 38.746 115.195 38.6467C115.041 38.5475 114.904 38.413 114.783 38.2425C114.662 38.0728 114.566 37.8621 114.495 37.611C114.423 37.36 114.388 37.0565 114.388 36.6991V31.6673Z" fill="#ED611A"/>
<path d="M121.631 32.5347H120.121V31.6666H124.557V32.5347H123.053V38.9316H121.631V32.5347Z" fill="#ED611A"/>
<path d="M127.277 31.6673H125.855V38.9316H127.277V31.6673Z" fill="#ED611A"/>
<path d="M131.293 38.9957C131.142 38.9957 130.98 38.9863 130.804 38.9676C130.628 38.9496 130.455 38.9108 130.282 38.8511C130.111 38.7914 129.945 38.7073 129.786 38.5979C129.626 38.4886 129.485 38.3448 129.363 38.1664C129.241 37.9873 129.143 37.7672 129.07 37.5047C128.996 37.2429 128.959 36.93 128.959 36.5668V33.9941C128.959 33.6288 128.997 33.3152 129.072 33.0562C129.147 32.7966 129.246 32.5787 129.372 32.401C129.495 32.2241 129.638 32.0831 129.797 31.9781C129.956 31.8731 130.122 31.7933 130.297 31.7379C130.471 31.6825 130.643 31.6465 130.815 31.6293C130.987 31.6127 131.147 31.6034 131.293 31.6034C131.431 31.6034 131.586 31.6113 131.757 31.6271C131.926 31.6429 132.097 31.6767 132.267 31.7293C132.438 31.7818 132.602 31.8594 132.764 31.963C132.925 32.0666 133.068 32.2068 133.192 32.3845C133.317 32.5614 133.416 32.7815 133.491 33.0433C133.566 33.3058 133.604 33.6223 133.604 33.9941V36.5668C133.604 36.9272 133.565 37.2371 133.488 37.4961C133.412 37.7557 133.311 37.9758 133.186 38.1556C133.062 38.3361 132.919 38.4807 132.756 38.5893C132.593 38.6986 132.426 38.7835 132.256 38.8446C132.086 38.9058 131.917 38.946 131.748 38.9662C131.58 38.9856 131.428 38.9957 131.293 38.9957ZM131.293 38.1664C131.431 38.1664 131.554 38.1484 131.658 38.111C131.762 38.0743 131.848 38.0103 131.916 37.9197C131.984 37.8291 132.035 37.709 132.069 37.5601C132.105 37.4112 132.122 37.2235 132.122 36.9969V33.692C132.122 33.4597 132.105 33.2655 132.069 33.1095C132.035 32.9534 131.984 32.8275 131.916 32.7326C131.848 32.6384 131.762 32.5708 131.658 32.5305C131.554 32.4916 131.431 32.4715 131.293 32.4715C131.15 32.4715 131.026 32.4916 130.919 32.5305C130.814 32.5708 130.725 32.6384 130.656 32.7326C130.586 32.8275 130.534 32.9534 130.499 33.1095C130.465 33.2655 130.447 33.4597 130.447 33.692V36.9969C130.447 37.2235 130.465 37.4112 130.499 37.5601C130.534 37.709 130.586 37.8291 130.656 37.9197C130.725 38.0103 130.814 38.0743 130.919 38.111C131.026 38.1484 131.15 38.1664 131.293 38.1664Z" fill="#ED611A"/>
<path d="M135.286 31.6673H136.439L138.712 36.5286H138.745C138.734 36.415 138.719 36.2898 138.701 36.1503C138.682 36.0115 138.666 35.8532 138.651 35.6763C138.637 35.4987 138.624 35.298 138.613 35.0743C138.602 34.8506 138.597 34.5975 138.597 34.317V31.6673H139.87V38.9316H138.706L136.445 34.1983H136.4C136.412 34.3256 136.427 34.4644 136.445 34.6126C136.463 34.7614 136.479 34.9369 136.494 35.1376C136.509 35.3397 136.521 35.5742 136.532 35.8417C136.543 36.11 136.549 36.4279 136.549 36.7969V38.9316H135.286V31.6673Z" fill="#ED611A"/>
<path d="M141.448 37.4601C141.448 37.304 141.46 37.1602 141.483 37.0286C141.507 36.8962 141.543 36.7538 141.591 36.6006H142.694V36.9538C142.694 37.1494 142.71 37.3227 142.741 37.473C142.772 37.6234 142.823 37.75 142.895 37.8535C142.966 37.9564 143.061 38.0348 143.18 38.0873C143.299 38.1398 143.444 38.1664 143.617 38.1664C143.887 38.1664 144.094 38.1081 144.237 37.9938C144.38 37.8794 144.45 37.7111 144.45 37.4896C144.45 37.3767 144.441 37.2724 144.421 37.1767C144.401 37.0825 144.366 36.9883 144.317 36.8941C144.267 36.8006 144.2 36.702 144.116 36.5992C144.032 36.4956 143.924 36.3798 143.792 36.2518L142.31 34.8867C142.046 34.6263 141.843 34.3631 141.701 34.0984C141.558 33.8323 141.486 33.5504 141.486 33.2497C141.486 33.0088 141.535 32.7872 141.632 32.5859C141.729 32.3845 141.869 32.2111 142.052 32.0651C142.234 31.9191 142.461 31.8055 142.73 31.7249C142.999 31.6437 143.304 31.6034 143.644 31.6034C144.057 31.6034 144.402 31.6487 144.679 31.7393C144.955 31.8307 145.175 31.9493 145.34 32.0968C145.505 32.2442 145.621 32.4097 145.689 32.5923C145.756 32.775 145.79 32.9584 145.79 33.1433C145.79 33.2993 145.774 33.4432 145.744 33.5748C145.713 33.7071 145.677 33.8517 145.636 34.0107H144.539V33.6661C144.539 33.2806 144.468 32.985 144.325 32.7793C144.182 32.5744 143.95 32.4708 143.628 32.4708C143.36 32.4708 143.161 32.529 143.029 32.6434C142.897 32.7585 142.831 32.9124 142.831 33.1051C142.831 33.2073 142.841 33.2993 142.862 33.3813C142.882 33.4633 142.911 33.5396 142.949 33.6086C142.987 33.6784 143.035 33.746 143.09 33.8107C143.144 33.8762 143.207 33.9438 143.276 34.015L144.929 35.5635C145.229 35.8663 145.459 36.1576 145.621 36.4374C145.781 36.7164 145.861 37.012 145.861 37.3235C145.861 37.5824 145.81 37.814 145.705 38.0218C145.601 38.2282 145.452 38.4045 145.258 38.549C145.064 38.6929 144.829 38.8044 144.555 38.8828C144.281 38.9604 143.971 38.9993 143.628 38.9993C143.202 38.9993 142.851 38.9561 142.57 38.8677C142.29 38.7799 142.068 38.6641 141.901 38.5188C141.734 38.3742 141.617 38.2095 141.55 38.0254C141.482 37.8413 141.448 37.6529 141.448 37.4601Z" fill="#ED611A"/>
<path d="M14.1788 4.53493C14.0788 4.72409 13.935 4.81832 13.7451 4.81832C13.6005 4.81832 13.4135 4.71546 13.1855 4.50976C12.9568 4.30477 12.6468 4.07679 12.257 3.8265C11.8657 3.57621 11.3781 3.34605 10.7927 3.13459C10.2079 2.92314 9.48508 2.8174 8.62703 2.8174C7.76827 2.8174 7.01235 2.93968 6.36 3.18422C5.70766 3.42948 5.16105 3.76248 4.72088 4.18467C4.28071 4.60758 3.94626 5.09666 3.71683 5.65191C3.48811 6.20788 3.37446 6.79189 3.37446 7.40324C3.37446 8.20303 3.54349 8.86472 3.88296 9.38688C4.22316 9.90976 4.67126 10.3543 5.22722 10.7211C5.78463 11.0879 6.41611 11.3964 7.12311 11.6467C7.83012 11.897 8.55584 12.1444 9.30169 12.3882C10.0475 12.6328 10.7747 12.9025 11.481 13.1974C12.188 13.4923 12.8194 13.8619 13.3761 14.3064C13.9321 14.7509 14.3802 15.2983 14.7204 15.9485C15.0599 16.5986 15.2296 17.4078 15.2296 18.3744C15.2296 19.3641 15.0598 20.2948 14.7211 21.1672C14.3816 22.0403 13.8904 22.7991 13.2452 23.4436C12.6001 24.088 11.8118 24.5965 10.8775 24.9691C9.94395 25.3416 8.87661 25.5279 7.67621 25.5279C6.11979 25.5279 4.77985 25.2525 3.65713 24.7022C2.5344 24.152 1.5505 23.399 0.706116 22.4431L1.17361 21.7095C1.30667 21.5426 1.46204 21.4592 1.64041 21.4592C1.74038 21.4592 1.8684 21.5261 2.02448 21.6591C2.17983 21.7929 2.36899 21.9569 2.59195 22.1511C2.81419 22.3453 3.08174 22.5568 3.39317 22.7847C3.70531 23.0127 4.06637 23.2242 4.47849 23.4184C4.88989 23.6133 5.36315 23.7766 5.89826 23.9104C6.43193 24.0434 7.03824 24.1103 7.71792 24.1103C8.65292 24.1103 9.48797 23.9686 10.2223 23.6852C10.9574 23.4019 11.5781 23.0156 12.0851 22.5266C12.5915 22.0375 12.977 21.4563 13.2445 20.7839C13.5121 20.1114 13.6451 19.3914 13.6451 18.6247C13.6451 17.7911 13.4761 17.105 13.1359 16.5656C12.7964 16.0261 12.3483 15.5759 11.7924 15.2148C11.235 14.8538 10.6035 14.5503 9.89649 14.3064C9.18948 14.0619 8.46376 13.8224 7.71792 13.5886C6.97207 13.3556 6.24493 13.0945 5.53864 12.8054C4.83163 12.5163 4.20016 12.1466 3.64347 11.6963C3.08679 11.2461 2.63869 10.6851 2.29921 10.0126C1.95974 9.34013 1.79001 8.49791 1.79001 7.48667C1.79001 6.69695 1.94032 5.93529 2.24096 5.20239C2.5416 4.46805 2.98106 3.82075 3.56005 3.25975C4.13831 2.69803 4.85395 2.24777 5.70552 1.90901C6.55709 1.57025 7.52877 1.40051 8.61913 1.40051C9.84398 1.40051 10.9423 1.59471 11.9175 1.98381C12.8907 2.37292 13.7782 2.96772 14.5794 3.76822L14.1788 4.53493Z" fill="white"/>
<path d="M24.9668 8.40375C25.9011 8.40375 26.7649 8.56485 27.5603 8.88707C28.3544 9.21001 29.0441 9.67968 29.6274 10.2961C30.2114 10.9132 30.666 11.672 30.9947 12.5724C31.3227 13.4729 31.4866 14.5064 31.4866 15.6738C31.4866 15.9183 31.4507 16.0852 31.378 16.1744C31.3061 16.2628 31.1925 16.3074 31.0364 16.3074H19.0648V16.6239C19.0648 17.8689 19.2086 18.9643 19.4985 19.9093C19.7869 20.8537 20.1983 21.6463 20.732 22.285C21.2656 22.9244 21.9101 23.4048 22.666 23.727C23.4219 24.0499 24.267 24.2111 25.2013 24.2111C26.0341 24.2111 26.7562 24.119 27.3676 23.9356C27.9797 23.7522 28.4939 23.5465 28.9104 23.3185C29.3275 23.0912 29.6584 22.8855 29.9022 22.7021C30.1474 22.5187 30.3251 22.4266 30.4358 22.4266C30.5811 22.4266 30.6919 22.4827 30.7696 22.5935L31.2033 23.1272C30.9364 23.4602 30.584 23.7716 30.1445 24.0607C29.7051 24.3499 29.216 24.5973 28.6773 24.803C28.1379 25.0087 27.5603 25.1727 26.9432 25.295C26.3254 25.4172 25.7062 25.4784 25.0833 25.4784C23.9498 25.4784 22.9163 25.2806 21.982 24.8864C21.0491 24.4916 20.2472 23.9162 19.579 23.1603C18.9101 22.4043 18.393 21.4794 18.0276 20.384C17.663 19.2894 17.4803 18.0357 17.4803 16.6239C17.4803 15.435 17.6493 14.3374 17.9888 13.3312C18.3283 12.325 18.8166 11.4583 19.4568 10.7298C20.0954 10.0019 20.8787 9.43225 21.8072 9.02085C22.7357 8.60945 23.7887 8.40375 24.9668 8.40375ZM24.992 9.5876C24.1368 9.5876 23.3701 9.72067 22.694 9.98822C22.0172 10.2551 21.431 10.6384 20.9369 11.1383C20.4435 11.6389 20.0436 12.2387 19.7387 12.9392C19.433 13.6398 19.2309 14.423 19.1309 15.2904H30.0532C30.0532 14.4014 29.9302 13.6038 29.6864 12.8975C29.4426 12.192 29.0981 11.5943 28.6543 11.1052C28.2098 10.6161 27.6769 10.2407 27.0562 9.97959C26.4333 9.71851 25.7464 9.5876 24.992 9.5876Z" fill="white"/>
<path d="M40.3179 25.2612H39.4152L32.4128 8.67065H33.6628C33.8189 8.67065 33.944 8.71238 34.0382 8.79581C34.1325 8.87924 34.2015 8.97057 34.2461 9.07055L39.7159 22.1599C39.8266 22.4159 39.9101 22.6597 39.9654 22.8935C40.0208 23.1265 40.0769 23.3603 40.1323 23.594C40.1877 23.3603 39.7482 23.1244 39.8094 22.8849C39.8705 22.6461 39.9511 22.4044 40.0518 22.1599L45.5539 9.07055C45.6093 8.94828 45.6841 8.85118 45.7783 8.77853C45.8725 8.70661 45.9876 8.67065 46.1206 8.67065H47.321L40.3179 25.2612Z" fill="white"/>
<path d="M58.6978 25.2612C58.3641 25.2612 58.1577 25.1051 58.08 24.7937L57.847 22.6762C57.391 23.1215 56.9379 23.5214 56.4876 23.8774C56.0374 24.2327 55.5685 24.5333 55.0794 24.7771C54.5903 25.0217 54.0624 25.2079 53.4949 25.336C52.9281 25.4633 52.306 25.528 51.6271 25.528C51.0603 25.528 50.5101 25.4446 49.9764 25.2777C49.4435 25.1109 48.9702 24.8555 48.5588 24.5103C48.1481 24.1658 47.8173 23.7242 47.5677 23.1847C47.3174 22.646 47.1923 21.9987 47.1923 21.2421C47.1923 20.5423 47.3922 19.8921 47.7921 19.2915C48.1927 18.691 48.8177 18.1688 49.6686 17.7243C50.5187 17.2799 51.6134 16.9238 52.9533 16.657C54.2925 16.3902 55.9015 16.2348 57.7808 16.1902V14.4561C57.7808 12.922 57.4493 11.741 56.7883 10.9132C56.1273 10.0846 55.1463 9.67107 53.8459 9.67107C53.0447 9.67107 52.3643 9.78184 51.8033 10.0041C51.2416 10.2263 50.7661 10.4709 50.377 10.7377C49.9879 11.0045 49.6715 11.2491 49.4262 11.4713C49.1824 11.6943 48.976 11.805 48.8098 11.805C48.5876 11.805 48.42 11.7051 48.3092 11.5044L48.0266 11.0211C48.8932 10.1544 49.8045 9.49848 50.7611 9.05399C51.7162 8.6095 52.8008 8.38654 54.012 8.38654C54.901 8.38654 55.6792 8.52823 56.346 8.8116C57.0134 9.0957 57.5658 9.50134 58.0052 10.0293C58.4447 10.5572 58.7755 11.1966 58.9978 11.9467C59.2193 12.6969 59.3315 13.5334 59.3315 14.4561V25.2612H58.6978ZM52.0277 24.3772C52.6721 24.3772 53.264 24.3082 53.8035 24.1687C54.3422 24.0299 54.8428 23.8349 55.3038 23.5854C55.7655 23.3351 56.1964 23.038 56.597 22.6928C56.9961 22.3483 57.391 21.9757 57.7808 21.5758V17.2575C56.2021 17.3014 54.8428 17.4215 53.7035 17.6157C52.5642 17.8106 51.6242 18.0746 50.8855 18.4076C50.1469 18.7413 49.601 19.1391 49.2514 19.6001C48.9012 20.0611 48.7264 20.5869 48.7264 21.1759C48.7264 21.7319 48.8177 22.2123 49.0011 22.618C49.1853 23.0244 49.4262 23.3574 49.7269 23.6185C50.0268 23.8795 50.377 24.0716 50.7776 24.1938C51.1768 24.3161 51.594 24.3772 52.0277 24.3772Z" fill="white"/>
<path d="M62.3321 25.2612V8.67063H63.165C63.3548 8.67063 63.4908 8.70948 63.5742 8.78716C63.6569 8.86484 63.7051 8.99862 63.7152 9.18706L63.8497 12.689C64.3833 11.344 65.0939 10.2911 65.9836 9.5294C66.8726 8.76773 67.9673 8.38727 69.2684 8.38727C69.769 8.38727 70.23 8.43977 70.6529 8.5455C71.0744 8.65123 71.475 8.8037 71.8533 9.00365L71.6361 10.1041C71.6023 10.2824 71.4915 10.3709 71.3031 10.3709C71.2362 10.3709 71.1413 10.3493 71.019 10.3047C70.8967 10.2601 70.7442 10.2105 70.5601 10.1544C70.3774 10.099 70.1516 10.0487 69.8855 10.0048C69.6179 9.96023 69.313 9.93792 68.9677 9.93792C67.712 9.93792 66.6813 10.327 65.8758 11.1052C65.0688 11.8835 64.4164 13.0054 63.9158 14.4734V25.2612H62.3321Z" fill="white"/>
<path d="M79.3247 8.40375C80.2583 8.40375 81.1221 8.56485 81.9175 8.88707C82.7116 9.21001 83.402 9.67968 83.9853 10.2961C84.5686 10.9132 85.0246 11.672 85.3519 12.5724C85.6798 13.4729 85.8438 14.5064 85.8438 15.6738C85.8438 15.9183 85.8079 16.0852 85.7359 16.1744C85.664 16.2628 85.5497 16.3074 85.395 16.3074H73.4219V16.6239C73.4219 17.8689 73.5672 18.9643 73.8556 19.9093C74.1441 20.8537 74.5555 21.6463 75.0891 22.285C75.6228 22.9244 76.2672 23.4048 77.0239 23.727C77.7791 24.0499 78.6242 24.2111 79.5584 24.2111C80.392 24.2111 81.1149 24.119 81.7262 23.9356C82.3368 23.7522 82.8518 23.5465 83.2675 23.3185C83.6847 23.0912 84.0155 22.8855 84.2601 22.7021C84.5046 22.5187 84.6823 22.4266 84.7937 22.4266C84.9383 22.4266 85.0498 22.4827 85.1275 22.5935L85.5612 23.1272C85.2936 23.4602 84.9412 23.7716 84.5025 24.0607C84.063 24.3499 83.5739 24.5973 83.0345 24.803C82.4951 25.0087 81.9175 25.1727 81.3004 25.295C80.684 25.4172 80.0633 25.4784 79.4412 25.4784C78.3077 25.4784 77.2734 25.2806 76.3406 24.8864C75.4063 24.4916 74.6051 23.9162 73.9362 23.1603C73.2673 22.4043 72.7502 21.4794 72.3855 20.384C72.0202 19.2894 71.8382 18.0357 71.8382 16.6239C71.8382 15.435 72.0079 14.3374 72.3467 13.3312C72.6855 12.325 73.1738 11.4583 73.8139 10.7298C74.4533 10.0019 75.2373 9.43225 76.1651 9.02085C77.0929 8.60945 78.1466 8.40375 79.3247 8.40375ZM79.3491 9.5876C78.4947 9.5876 77.7287 9.72067 77.0519 9.98822C76.3744 10.2551 75.7889 10.6384 75.2955 11.1383C74.8014 11.6389 74.4023 12.2387 74.0966 12.9392C73.7916 13.6398 73.5881 14.423 73.4888 15.2904H84.4104C84.4104 14.4014 84.2888 13.6038 84.0436 12.8975C83.7998 12.192 83.4552 11.5943 83.0122 11.1052C82.5677 10.6161 82.0355 10.2407 81.4134 9.97959C80.7919 9.71851 80.1036 9.5876 79.3491 9.5876Z" fill="white"/>
<path d="M101.211 25.2612C100.936 25.2612 100.776 25.1166 100.733 24.8275L100.566 22.2095C99.8307 23.2099 98.9712 24.0047 97.9859 24.5945C97.0005 25.1835 95.8965 25.4777 94.6723 25.4777C92.6348 25.4777 91.0467 24.7721 89.9053 23.3603C88.7646 21.9484 88.1942 19.831 88.1942 17.0073C88.1942 15.7961 88.3524 14.6647 88.6696 13.6139C88.9875 12.5638 89.455 11.6526 90.0721 10.8794C90.6907 10.1069 91.4466 9.49848 92.3435 9.05399C93.2396 8.60951 94.2717 8.38726 95.4405 8.38726C96.5639 8.38726 97.5385 8.59511 98.362 9.01227C99.1863 9.4287 99.899 10.0379 100.5 10.8377V1H102.084V25.2612H101.211ZM95.1226 24.1938C96.2237 24.1938 97.2206 23.9105 98.1117 23.3437C99.0021 22.7762 99.7983 21.9872 100.5 20.976V12.2222C99.8537 11.2771 99.1445 10.6104 98.3706 10.2213C97.5968 9.83219 96.72 9.63727 95.7397 9.63727C94.7601 9.63727 93.9028 9.81493 93.1684 10.1709C92.4334 10.527 91.8184 11.0297 91.3222 11.6799C90.828 12.3301 90.454 13.1083 90.2037 14.0145C89.9535 14.9208 89.8283 15.9183 89.8283 17.0073C89.8283 19.475 90.2843 21.2903 91.197 22.4519C92.1112 23.6134 93.4187 24.1938 95.1226 24.1938Z" fill="white"/>
<path d="M101.211 25.2612C100.936 25.2612 100.776 25.1166 100.733 24.8275L100.566 22.2095C99.8307 23.2099 98.9712 24.0047 97.9859 24.5945C97.0005 25.1835 95.8965 25.4777 94.6724 25.4777C92.6348 25.4777 91.0467 24.7721 89.9053 23.3603C88.7646 21.9484 88.1942 19.831 88.1942 17.0073C88.1942 15.7961 88.3524 14.6647 88.6696 13.6139C88.9875 12.5638 89.455 11.6526 90.0721 10.8794C90.6907 10.1069 91.4466 9.49848 92.3435 9.05399C93.2396 8.60951 94.2717 8.38726 95.4405 8.38726C96.5639 8.38726 97.5385 8.59511 98.362 9.01227C99.1863 9.4287 99.899 10.0379 100.5 10.8377V1H102.084V25.2612H101.211V25.2612ZM95.1226 24.1938C96.2237 24.1938 97.2206 23.9105 98.1117 23.3437C99.0021 22.7762 99.7983 21.9872 100.5 20.976V12.2222C99.8537 11.2771 99.1445 10.6104 98.3706 10.2213C97.5968 9.83219 96.72 9.63727 95.7397 9.63727C94.7601 9.63727 93.9028 9.81493 93.1684 10.1709C92.4334 10.527 91.8184 11.0297 91.3222 11.6799C90.828 12.3301 90.454 13.1083 90.2037 14.0145C89.9535 14.9208 89.8283 15.9183 89.8283 17.0073C89.8283 19.475 90.2843 21.2903 91.197 22.4519C92.1112 23.6134 93.4187 24.1938 95.1226 24.1938Z" stroke="white" stroke-width="1.578" stroke-miterlimit="10"/>
<path d="M112.571 8.40375C113.505 8.40375 114.368 8.56485 115.164 8.88707C115.958 9.21001 116.648 9.67968 117.232 10.2961C117.815 10.9132 118.271 11.672 118.598 12.5724C118.926 13.4729 119.09 14.5064 119.09 15.6738C119.09 15.9183 119.054 16.0852 118.982 16.1744C118.91 16.2628 118.796 16.3074 118.641 16.3074H106.668V16.6239C106.668 17.8689 106.814 18.9643 107.102 19.9093C107.39 20.8537 107.802 21.6463 108.336 22.285C108.869 22.9244 109.514 23.4048 110.27 23.727C111.025 24.0499 111.871 24.2111 112.805 24.2111C113.638 24.2111 114.361 24.119 114.973 23.9356C115.583 23.7522 116.098 23.5465 116.514 23.3185C116.931 23.0912 117.262 22.8855 117.506 22.7021C117.751 22.5187 117.929 22.4266 118.04 22.4266C118.185 22.4266 118.296 22.4827 118.374 22.5935L118.808 23.1272C118.54 23.4602 118.188 23.7716 117.749 24.0607C117.309 24.3499 116.82 24.5973 116.281 24.803C115.741 25.0087 115.164 25.1727 114.547 25.295C113.93 25.4172 113.31 25.4784 112.688 25.4784C111.554 25.4784 110.52 25.2806 109.587 24.8864C108.653 24.4916 107.851 23.9162 107.183 23.1603C106.514 22.4043 105.997 21.4794 105.632 20.384C105.267 19.2894 105.085 18.0357 105.085 16.6239C105.085 15.435 105.254 14.3374 105.593 13.3312C105.932 12.325 106.42 11.4583 107.06 10.7298C107.7 10.0019 108.484 9.43225 109.412 9.02085C110.339 8.60945 111.393 8.40375 112.571 8.40375ZM112.596 9.5876C111.741 9.5876 110.975 9.72067 110.298 9.98822C109.621 10.2551 109.035 10.6384 108.542 11.1383C108.048 11.6389 107.649 12.2387 107.343 12.9392C107.038 13.6398 106.834 14.423 106.735 15.2904H117.657C117.657 14.4014 117.535 13.6038 117.29 12.8975C117.046 12.192 116.702 11.5943 116.259 11.1052C115.814 10.6161 115.282 10.2407 114.66 9.97959C114.038 9.71851 113.35 9.5876 112.596 9.5876Z" fill="white"/>
<path d="M112.571 8.40375C113.505 8.40375 114.368 8.56485 115.164 8.88707C115.958 9.21001 116.648 9.67968 117.232 10.2961C117.815 10.9132 118.271 11.672 118.598 12.5724C118.926 13.4729 119.09 14.5064 119.09 15.6738C119.09 15.9183 119.054 16.0852 118.982 16.1744C118.91 16.2628 118.796 16.3074 118.641 16.3074H106.668V16.6239C106.668 17.8689 106.814 18.9643 107.102 19.9093C107.39 20.8537 107.802 21.6463 108.336 22.285C108.869 22.9244 109.514 23.4048 110.27 23.727C111.025 24.0499 111.871 24.2111 112.805 24.2111C113.638 24.2111 114.361 24.119 114.973 23.9356C115.583 23.7522 116.098 23.5465 116.514 23.3185C116.931 23.0912 117.262 22.8855 117.506 22.7021C117.751 22.5187 117.929 22.4266 118.04 22.4266C118.185 22.4266 118.296 22.4827 118.374 22.5935L118.808 23.1272C118.54 23.4602 118.188 23.7716 117.749 24.0607C117.309 24.3499 116.82 24.5973 116.281 24.803C115.741 25.0087 115.164 25.1727 114.547 25.295C113.93 25.4172 113.31 25.4784 112.688 25.4784C111.554 25.4784 110.52 25.2805 109.587 24.8864C108.653 24.4916 107.851 23.9162 107.183 23.1603C106.514 22.4043 105.997 21.4794 105.632 20.384C105.267 19.2894 105.085 18.0357 105.085 16.6239C105.085 15.435 105.254 14.3374 105.593 13.3312C105.932 12.325 106.42 11.4583 107.06 10.7298C107.7 10.0019 108.484 9.43225 109.412 9.02085C110.339 8.60945 111.393 8.40375 112.571 8.40375ZM112.596 9.5876C111.741 9.5876 110.975 9.72067 110.298 9.98822C109.621 10.2551 109.035 10.6384 108.542 11.1383C108.048 11.6389 107.649 12.2387 107.343 12.9392C107.038 13.6398 106.834 14.423 106.735 15.2904H117.657C117.657 14.4014 117.535 13.6038 117.29 12.8975C117.046 12.192 116.702 11.5943 116.259 11.1052C115.814 10.6161 115.282 10.2407 114.66 9.97959C114.038 9.71851 113.35 9.5876 112.596 9.5876Z" stroke="white" stroke-width="1.578" stroke-miterlimit="10"/>
<path d="M122.692 25.2611V8.67058H123.559C123.848 8.67058 124.015 8.8094 124.059 9.08703L124.21 11.5885C124.965 10.6327 125.846 9.86308 126.852 9.27906C127.858 8.69576 128.978 8.40375 130.212 8.40375C131.124 8.40375 131.926 8.54831 132.622 8.83744C133.316 9.12657 133.891 9.54302 134.347 10.0875C134.803 10.6327 135.147 11.2879 135.381 12.0553C135.614 12.822 135.731 13.6894 135.731 14.656V25.2611H134.147V14.656C134.147 13.1003 133.791 11.8805 133.08 10.9966C132.369 10.1127 131.279 9.67103 129.812 9.67103C128.722 9.67103 127.711 9.95154 126.777 10.5125C125.844 11.0743 125.009 11.8438 124.276 12.822V25.2611H122.692Z" fill="white"/>
<path d="M122.692 25.2611V8.67058H123.559C123.848 8.67058 124.015 8.8094 124.059 9.08703L124.21 11.5885C124.965 10.6327 125.846 9.86308 126.852 9.27906C127.858 8.69576 128.978 8.40375 130.212 8.40375C131.124 8.40375 131.926 8.54831 132.622 8.83744C133.316 9.12657 133.891 9.54302 134.347 10.0875C134.803 10.6327 135.147 11.2879 135.381 12.0553C135.614 12.822 135.731 13.6894 135.731 14.656V25.2611H134.147V14.656C134.147 13.1003 133.791 11.8805 133.08 10.9966C132.369 10.1127 131.279 9.67103 129.812 9.67103C128.722 9.67103 127.711 9.95154 126.777 10.5125C125.844 11.0743 125.009 11.8438 124.276 12.822V25.2611H122.692Z" stroke="white" stroke-width="1.578" stroke-miterlimit="10"/>
<path d="M138.735 2.85498H140.287V9.18712H145.505V10.371H140.287V21.6255C140.287 22.0815 140.345 22.4735 140.462 22.8015C140.579 23.1294 140.739 23.3992 140.945 23.6099C141.151 23.8213 141.392 23.9767 141.671 24.0767C141.948 24.1767 142.249 24.227 142.57 24.227C142.971 24.227 143.315 24.1687 143.605 24.0522C143.894 23.935 144.143 23.8077 144.355 23.6682C144.566 23.5294 144.738 23.4013 144.871 23.2848C145.006 23.1683 145.111 23.11 145.188 23.11C145.277 23.11 145.366 23.1654 145.456 23.2769L145.89 23.9767C145.467 24.4435 144.93 24.8189 144.281 25.1023C143.63 25.3857 142.954 25.5274 142.255 25.5274C141.13 25.5274 140.259 25.2167 139.637 24.5938C139.024 23.9825 138.767 23.0712 138.702 21.709L138.735 2.85498Z" fill="white"/>
<path d="M138.735 2.85498H140.287V9.18712H145.505V10.371H140.287V21.6255C140.287 22.0815 140.345 22.4735 140.462 22.8015C140.579 23.1294 140.739 23.3992 140.945 23.6099C141.151 23.8213 141.392 23.9767 141.671 24.0767C141.948 24.1767 142.249 24.227 142.57 24.227C142.971 24.227 143.315 24.1687 143.605 24.0522C143.894 23.935 144.143 23.8077 144.355 23.6682C144.566 23.5294 144.738 23.4013 144.871 23.2848C145.006 23.1683 145.111 23.11 145.188 23.11C145.277 23.11 145.366 23.1654 145.456 23.2769L145.89 23.9767C145.467 24.4435 144.93 24.8189 144.281 25.1023C143.63 25.3857 142.954 25.5274 142.255 25.5274C141.13 25.5274 140.259 25.2167 139.637 24.5938C139.024 23.9825 138.767 23.0712 138.702 21.709L138.735 2.85498Z" stroke="white" stroke-width="1.578" stroke-miterlimit="10"/>
<path d="M59.8522 5.25427H48.6811V6.24969H59.8522V5.25427Z" fill="#ED611A"/>
<path d="M151.134 6.62939V7.12567H149.725V10.9915H149.134V7.12567H147.719V6.62939H151.134Z" fill="white"/>
<path d="M153.976 9.56818C153.997 9.62212 154.018 9.67606 154.038 9.73144C154.059 9.67462 154.08 9.61997 154.102 9.56818C154.124 9.5164 154.15 9.4646 154.178 9.41137L155.655 6.72935C155.681 6.68332 155.709 6.65456 155.737 6.6445C155.765 6.63443 155.806 6.62939 155.859 6.62939H156.294V10.9915H155.776V7.78592C155.776 7.74349 155.778 7.69745 155.78 7.64854C155.781 7.60035 155.785 7.55073 155.788 7.49966L154.294 10.227C154.243 10.3183 154.172 10.3644 154.081 10.3644H153.996C153.905 10.3644 153.833 10.3183 153.782 10.227L152.255 7.49031C152.261 7.54353 152.266 7.59532 152.268 7.64567C152.271 7.69673 152.273 7.74349 152.273 7.78592V10.9915H151.756V6.62939H152.191C152.243 6.62939 152.284 6.63443 152.312 6.6445C152.34 6.65456 152.368 6.68332 152.394 6.72935L153.901 9.41425C153.93 9.46316 153.955 9.51496 153.976 9.56818Z" fill="white"/>
</svg>
