<svg width="156" height="39" viewBox="0 0 156 39" fill="none" xmlns="http://www.w3.org/2000/svg">
<path d="M46.7571 37.4602C46.7571 37.304 46.7687 37.1603 46.7928 37.0282C46.8161 36.8969 46.8518 36.754 46.8992 36.6011H48.0026V36.9534C48.0026 37.1495 48.0184 37.3231 48.05 37.4727C48.0807 37.6231 48.1323 37.7502 48.2037 37.8541C48.2752 37.9571 48.3699 38.0352 48.4887 38.0876C48.6075 38.1399 48.753 38.1665 48.9258 38.1665C49.1958 38.1665 49.4027 38.1084 49.5457 37.9937C49.6886 37.879 49.7592 37.7112 49.7592 37.4893C49.7592 37.3763 49.7492 37.2724 49.7293 37.1769C49.7094 37.0822 49.6745 36.9883 49.6254 36.8944C49.5764 36.8005 49.5091 36.7024 49.4243 36.5994C49.3404 36.4955 49.2324 36.38 49.1011 36.2521L47.6187 34.8868C47.3553 34.6259 47.1526 34.3634 47.0088 34.0983C46.8667 33.8324 46.7953 33.5499 46.7953 33.2499C46.7953 33.009 46.8435 32.7879 46.9407 32.586C47.0371 32.3849 47.1775 32.2113 47.3603 32.065C47.5431 31.9196 47.7691 31.8058 48.0392 31.7252C48.3076 31.6437 48.6125 31.603 48.9524 31.603C49.3662 31.603 49.711 31.6487 49.9877 31.7401C50.2636 31.8307 50.4846 31.9495 50.6491 32.0974C50.8137 32.2445 50.93 32.4099 50.9973 32.5927C51.0654 32.7755 51.0995 32.9591 51.0995 33.1436C51.0995 33.299 51.0837 33.4435 51.0521 33.5748C51.0214 33.7069 50.9856 33.8524 50.9449 34.0111H49.8473V33.6662C49.8473 33.2807 49.7758 32.9849 49.6338 32.7796C49.4908 32.5744 49.2582 32.4714 48.9358 32.4714C48.669 32.4714 48.4696 32.5287 48.3383 32.6434C48.2062 32.758 48.1406 32.9126 48.1406 33.1054C48.1406 33.2067 48.1505 33.299 48.1705 33.3812C48.1904 33.4635 48.2203 33.5399 48.2586 33.6089C48.2968 33.6779 48.3433 33.746 48.3982 33.8108C48.453 33.8756 48.5153 33.9438 48.5843 34.0152L50.237 35.5632C50.5378 35.8665 50.768 36.1582 50.9292 36.4374C51.0904 36.7166 51.1701 37.0115 51.1701 37.324C51.1701 37.5824 51.1186 37.8142 51.0139 38.0219C50.91 38.228 50.7605 38.4042 50.5669 38.5487C50.3733 38.6933 50.1381 38.8047 49.8639 38.8828C49.5897 38.9609 49.2798 38.9999 48.9358 38.9999C48.5111 38.9999 48.1597 38.9559 47.8788 38.8678C47.5996 38.7806 47.3761 38.6634 47.2099 38.5188C47.0429 38.3742 46.9257 38.2097 46.8584 38.0253C46.7911 37.8416 46.7571 37.653 46.7571 37.4602Z" fill="#ED611A"/>
<path d="M54.7798 38.9958C54.6294 38.9958 54.4665 38.9867 54.2912 38.9676C54.115 38.9493 53.9422 38.9111 53.7694 38.8512C53.5974 38.7914 53.432 38.7075 53.2733 38.5986C53.1138 38.4889 52.9725 38.3452 52.8504 38.1665C52.7274 37.9879 52.6294 37.7677 52.5562 37.5051C52.4831 37.2425 52.4465 36.9301 52.4465 36.567V33.9945C52.4465 33.6289 52.4839 33.3156 52.5596 33.0564C52.6343 32.7971 52.734 32.5786 52.8587 32.4016C52.9825 32.2246 53.1246 32.0833 53.2841 31.9786C53.4428 31.8731 53.609 31.7933 53.7835 31.7377C53.9572 31.6828 54.13 31.6463 54.302 31.6296C54.4748 31.613 54.6335 31.6039 54.7798 31.6039C54.9186 31.6039 55.0731 31.6114 55.2434 31.628C55.4138 31.6429 55.5841 31.677 55.7536 31.7294C55.9248 31.7817 56.0902 31.8598 56.2514 31.9637C56.4126 32.0667 56.5546 32.2071 56.6793 32.385C56.8039 32.5611 56.9036 32.7813 56.9784 33.043C57.0532 33.3064 57.0914 33.6222 57.0914 33.9945V36.567C57.0914 36.9276 57.0524 37.2376 56.9759 37.4968C56.8987 37.7561 56.7981 37.9763 56.6735 38.1557C56.5488 38.3361 56.4059 38.4806 56.243 38.5895C56.0802 38.6983 55.914 38.7839 55.7437 38.8446C55.5733 38.9061 55.4038 38.946 55.2351 38.9659C55.0665 38.9858 54.9152 38.9958 54.7798 38.9958ZM54.7798 38.1665C54.9186 38.1665 55.0407 38.1483 55.1446 38.1109C55.2493 38.0743 55.3348 38.0103 55.403 37.9198C55.4711 37.8292 55.5218 37.7095 55.5567 37.56C55.5916 37.4112 55.609 37.2243 55.609 36.9966V33.692C55.609 33.4593 55.5916 33.2657 55.5567 33.1095C55.5218 32.9533 55.4711 32.8278 55.403 32.7331C55.3348 32.6384 55.2493 32.5711 55.1446 32.5312C55.0407 32.4913 54.9186 32.4714 54.7798 32.4714C54.6369 32.4714 54.5131 32.4913 54.4067 32.5312C54.3003 32.5711 54.2122 32.6384 54.1433 32.7331C54.0735 32.8278 54.0211 32.9533 53.9871 33.1095C53.9522 33.2657 53.9339 33.4593 53.9339 33.692V36.9966C53.9339 37.2243 53.9522 37.4112 53.9871 37.56C54.0211 37.7095 54.0735 37.8292 54.1433 37.9198C54.2122 38.0103 54.3003 38.0743 54.4067 38.1109C54.5131 38.1483 54.6369 38.1665 54.7798 38.1665Z" fill="#ED611A"/>
<path d="M58.7405 31.667H60.1738V36.9916C60.1738 37.2193 60.188 37.407 60.217 37.5574C60.247 37.7087 60.2935 37.8283 60.3566 37.9172C60.4214 38.0061 60.5029 38.0701 60.6042 38.1083C60.7048 38.1466 60.8244 38.1657 60.964 38.1657C61.1028 38.1657 61.2249 38.1466 61.3288 38.1083C61.4335 38.0701 61.5191 38.0061 61.5864 37.9172C61.6545 37.8283 61.706 37.7087 61.7409 37.5574C61.7758 37.407 61.7925 37.2193 61.7925 36.9916V31.667H63.2092V36.6983C63.2092 37.0531 63.1726 37.3563 63.0995 37.6089C63.0264 37.8615 62.9292 38.0726 62.8087 38.2421C62.6874 38.4125 62.5494 38.5471 62.3941 38.6468C62.2387 38.7457 62.0767 38.8213 61.9105 38.8745C61.7443 38.926 61.5789 38.9592 61.4136 38.9742C61.249 38.9883 61.0986 38.9949 60.964 38.9949C60.8286 38.9949 60.6799 38.9883 60.5162 38.9742C60.3533 38.9592 60.1896 38.926 60.0251 38.8745C59.8606 38.8213 59.701 38.7457 59.5473 38.6468C59.3936 38.5471 59.2565 38.4125 59.136 38.2421C59.0147 38.0726 58.9191 37.8616 58.8477 37.6106C58.7762 37.3597 58.7405 37.0564 58.7405 36.6983V31.667Z" fill="#ED611A"/>
<path d="M65.1165 31.667H66.6595C66.8348 31.667 67.0276 31.6728 67.2386 31.6845C67.4489 31.6961 67.6591 31.7235 67.8701 31.7675C68.0804 31.8107 68.2831 31.8772 68.4792 31.9653C68.6745 32.0525 68.849 32.1739 69.0002 32.3268C69.1522 32.4796 69.2744 32.6716 69.3658 32.9026C69.4572 33.1336 69.5029 33.4136 69.5029 33.7427V33.9255C69.5029 34.4789 69.4007 34.9284 69.1955 35.2766C68.9902 35.6231 68.6886 35.874 68.2898 36.0269L69.7937 38.9318H68.2898L67.0434 36.2138H66.5116V38.9318H65.1165V31.667ZM66.7251 35.4186C66.9736 35.4186 67.1846 35.397 67.3566 35.3547C67.5286 35.3123 67.6674 35.2408 67.7738 35.1403C67.8801 35.0389 67.9565 34.9059 68.0039 34.7406C68.0521 34.5744 68.0754 34.37 68.0754 34.1257V33.5515C68.0754 33.3646 68.0538 33.2026 68.0097 33.0663C67.9657 32.9308 67.8917 32.8187 67.787 32.7306C67.6832 32.6425 67.5444 32.5777 67.3733 32.5345C67.2004 32.4921 66.9852 32.4713 66.7251 32.4713H66.5116V35.4186H66.7251Z" fill="#ED611A"/>
<path d="M73.2271 38.9949C73.0809 38.9949 72.9222 38.9858 72.7518 38.9675C72.5823 38.9493 72.412 38.9102 72.2417 38.8504C72.0713 38.7914 71.9084 38.7066 71.7531 38.5978C71.5977 38.4889 71.4606 38.3443 71.3418 38.1657C71.2221 37.987 71.1274 37.7669 71.0559 37.5043C70.9845 37.2425 70.9487 36.9293 70.9487 36.567V33.9936C70.9487 33.628 70.9853 33.3147 71.0584 33.0555C71.1315 32.7963 71.2287 32.5777 71.3501 32.4007C71.4705 32.2237 71.6093 32.0825 71.7672 31.9778C71.9242 31.8723 72.0871 31.7925 72.2558 31.7377C72.4236 31.682 72.5906 31.6462 72.7576 31.6288C72.9238 31.6122 73.0792 31.603 73.2213 31.603C73.5952 31.603 73.9068 31.6437 74.1578 31.7243C74.4079 31.8058 74.6098 31.9155 74.7618 32.0567C74.9131 32.1963 75.0211 32.36 75.0851 32.5478C75.1499 32.7348 75.1815 32.9333 75.1815 33.1436C75.1815 33.299 75.1715 33.4427 75.1507 33.5748C75.1308 33.7069 75.1009 33.8515 75.061 34.0102H73.9077V33.6405C73.9077 33.2408 73.8511 32.9417 73.7373 32.7431C73.6243 32.5445 73.4573 32.4456 73.2379 32.4456C73.1066 32.4456 72.9911 32.4655 72.8923 32.5046C72.7934 32.5445 72.7111 32.6126 72.6455 32.7073C72.579 32.8021 72.5292 32.9275 72.4943 33.0829C72.4594 33.24 72.4419 33.4336 72.4419 33.6662V36.9833C72.4419 37.211 72.456 37.3987 72.4835 37.5491C72.5109 37.6995 72.5557 37.82 72.6172 37.9106C72.6804 38.0012 72.761 38.066 72.8623 38.1042C72.9629 38.1424 73.0842 38.1615 73.2271 38.1615C73.3185 38.1615 73.4066 38.1458 73.4905 38.1125C73.5745 38.0801 73.6492 38.0294 73.7132 37.9596C73.7772 37.8898 73.8287 37.8026 73.8669 37.6962C73.9052 37.5899 73.9243 37.4636 73.9243 37.319V36.6094H75.2255V37.2808C75.2255 37.8649 75.0527 38.2962 74.7095 38.5745C74.3655 38.852 73.8711 38.9925 73.2271 38.9949Z" fill="#ED611A"/>
<path d="M78.1038 31.6678H76.6821V38.9318H78.1038V31.6678Z" fill="#ED611A"/>
<path d="M80.0449 31.667H81.1982L83.4708 36.5288H83.5041C83.4933 36.4149 83.4783 36.2895 83.4592 36.1499C83.4409 36.0111 83.4243 35.8532 83.4102 35.6754C83.3961 35.4984 83.3828 35.2981 83.3719 35.0738C83.3611 34.8503 83.3553 34.5977 83.3553 34.3168V31.667H84.6291V38.931H83.465L81.2041 34.198H81.1592C81.17 34.3251 81.185 34.4639 81.2041 34.6126C81.2223 34.7614 81.2381 34.9367 81.2531 35.1378C81.2672 35.3397 81.2805 35.574 81.2913 35.8416C81.3021 36.11 81.3079 36.4274 81.3079 36.7963V38.931H80.0449V31.667Z" fill="#ED611A"/>
<path d="M88.463 39C88.3533 39 88.2253 38.9908 88.0791 38.9725C87.932 38.9543 87.7816 38.9152 87.6254 38.8554C87.4708 38.7964 87.318 38.7116 87.1676 38.6019C87.0172 38.4931 86.8834 38.3485 86.7637 38.169C86.6449 37.9887 86.5493 37.7677 86.4754 37.5051C86.4023 37.2425 86.3657 36.9301 86.3657 36.567V33.9945C86.3657 33.6289 86.4039 33.3156 86.4812 33.0564C86.5585 32.7971 86.6607 32.5786 86.7887 32.4008C86.9166 32.2246 87.0645 32.0833 87.2307 31.9786C87.3977 31.8731 87.5706 31.7933 87.7492 31.7377C87.9287 31.6828 88.1065 31.6463 88.2818 31.6296C88.4572 31.6122 88.62 31.6039 88.7704 31.6039C89.151 31.6039 89.4717 31.6446 89.7343 31.7252C89.996 31.8058 90.2079 31.9163 90.3708 32.0567C90.5336 32.1972 90.6508 32.3609 90.7223 32.5478C90.7929 32.7356 90.8295 32.9334 90.8295 33.1436C90.8295 33.2998 90.817 33.4436 90.7929 33.5757C90.7696 33.707 90.7381 33.8524 90.6973 34.0111H89.5606V33.6671C89.5606 32.8702 89.2848 32.4714 88.7322 32.4714C88.5818 32.4714 88.4522 32.4913 88.3425 32.5312C88.2328 32.5711 88.1414 32.6384 88.0683 32.7331C87.9943 32.8278 87.9403 32.9533 87.9063 33.1095C87.8714 33.2657 87.8539 33.4593 87.8539 33.692V36.9841C87.8539 37.211 87.8714 37.3996 87.9063 37.55C87.9403 37.6996 87.9935 37.8209 88.065 37.9114C88.1364 38.002 88.2262 38.066 88.3342 38.1042C88.4422 38.1433 88.571 38.1624 88.7214 38.1624C88.8784 38.1624 89.0139 38.1308 89.1277 38.066C89.2407 38.0029 89.3338 37.9156 89.4069 37.8043C89.48 37.6946 89.534 37.5641 89.5689 37.4137C89.6038 37.2633 89.6213 37.1005 89.6213 36.9243V35.9762H88.8917V35.2525H91.0048V38.9318H90.0608L89.9071 38.243C89.7276 38.5122 89.5216 38.7058 89.2889 38.8238C89.0571 38.941 88.7812 39 88.463 39Z" fill="#ED611A"/>
<path d="M97.1011 37.4602C97.1011 37.304 97.1127 37.1603 97.1368 37.0282C97.1601 36.8969 97.1958 36.754 97.2432 36.6011H98.3466V36.9534C98.3466 37.1495 98.3624 37.3231 98.394 37.4727C98.4247 37.6231 98.4763 37.7502 98.5477 37.8541C98.6192 37.9571 98.7139 38.0352 98.8327 38.0876C98.9515 38.1399 99.097 38.1665 99.2698 38.1665C99.5398 38.1665 99.7467 38.1084 99.8897 37.9937C100.033 37.879 100.103 37.7112 100.103 37.4893C100.103 37.3763 100.093 37.2724 100.073 37.1769C100.053 37.0822 100.018 36.9883 99.9694 36.8944C99.9204 36.8005 99.8531 36.7024 99.7683 36.5994C99.6844 36.4955 99.5764 36.38 99.4451 36.2521L97.9627 34.8868C97.6993 34.6259 97.4958 34.3634 97.3528 34.0983C97.2108 33.8324 97.1393 33.5499 97.1393 33.2499C97.1393 33.009 97.1875 32.7879 97.2847 32.586C97.3811 32.3849 97.5215 32.2113 97.7043 32.065C97.8871 31.9196 98.1131 31.8058 98.3832 31.7252C98.6516 31.6437 98.9565 31.603 99.2964 31.603C99.7102 31.603 100.055 31.6487 100.332 31.7401C100.608 31.8307 100.829 31.9495 100.993 32.0974C101.158 32.2445 101.274 32.4099 101.341 32.5927C101.409 32.7755 101.443 32.9591 101.443 33.1436C101.443 33.299 101.428 33.4435 101.396 33.5748C101.365 33.7069 101.33 33.8524 101.289 34.0111H100.191V33.6662C100.191 33.2807 100.12 32.9849 99.9777 32.7796C99.8348 32.5744 99.6022 32.4714 99.2798 32.4714C99.013 32.4714 98.8136 32.5287 98.6823 32.6434C98.5502 32.758 98.4846 32.9126 98.4846 33.1054C98.4846 33.2067 98.4945 33.299 98.5145 33.3812C98.5344 33.4635 98.5643 33.5399 98.6026 33.6089C98.6408 33.6779 98.6873 33.746 98.7421 33.8108C98.797 33.8756 98.8593 33.9438 98.9283 34.0152L100.581 35.5632C100.882 35.8665 101.112 36.1582 101.273 36.4374C101.434 36.7166 101.514 37.0115 101.514 37.324C101.514 37.5824 101.463 37.8142 101.358 38.0219C101.254 38.228 101.104 38.4042 100.911 38.5487C100.717 38.6933 100.482 38.8047 100.208 38.8828C99.9337 38.9609 99.6238 38.9999 99.2798 38.9999C98.8552 38.9999 98.5037 38.9559 98.2228 38.8678C97.9436 38.7806 97.7201 38.6634 97.5539 38.5188C97.3869 38.3742 97.2697 38.2097 97.2024 38.0253C97.1351 37.8416 97.1011 37.653 97.1011 37.4602Z" fill="#ED611A"/>
<path d="M105.124 38.9958C104.973 38.9958 104.811 38.9867 104.635 38.9676C104.459 38.9493 104.286 38.9111 104.113 38.8512C103.941 38.7914 103.776 38.7075 103.617 38.5986C103.458 38.4889 103.316 38.3452 103.194 38.1665C103.071 37.9879 102.973 37.7677 102.9 37.5051C102.827 37.2425 102.791 36.9301 102.791 36.567V33.9945C102.791 33.6289 102.828 33.3156 102.904 33.0564C102.978 32.7971 103.078 32.5786 103.203 32.4016C103.326 32.2246 103.469 32.0833 103.628 31.9786C103.787 31.8731 103.953 31.7933 104.127 31.7377C104.301 31.6828 104.474 31.6463 104.646 31.6296C104.819 31.613 104.978 31.6039 105.124 31.6039C105.263 31.6039 105.417 31.6114 105.587 31.628C105.758 31.6429 105.928 31.677 106.098 31.7294C106.269 31.7817 106.434 31.8598 106.595 31.9637C106.757 32.0667 106.899 32.2071 107.023 32.385C107.148 32.5611 107.248 32.7813 107.322 33.043C107.397 33.3064 107.435 33.6222 107.435 33.9945V36.567C107.435 36.9276 107.396 37.2376 107.32 37.4968C107.243 37.7561 107.142 37.9763 107.017 38.1557C106.893 38.3361 106.75 38.4806 106.587 38.5895C106.424 38.6983 106.258 38.7839 106.088 38.8446C105.917 38.9061 105.748 38.946 105.579 38.9659C105.41 38.9858 105.259 38.9958 105.124 38.9958ZM105.124 38.1665C105.263 38.1665 105.385 38.1483 105.489 38.1109C105.593 38.0743 105.679 38.0103 105.747 37.9198C105.815 37.8292 105.866 37.7095 105.901 37.56C105.936 37.4112 105.953 37.2243 105.953 36.9966V33.692C105.953 33.4593 105.936 33.2657 105.901 33.1095C105.866 32.9533 105.815 32.8278 105.747 32.7331C105.679 32.6384 105.593 32.5711 105.489 32.5312C105.385 32.4913 105.263 32.4714 105.124 32.4714C104.981 32.4714 104.857 32.4913 104.75 32.5312C104.644 32.5711 104.556 32.6384 104.487 32.7331C104.417 32.8278 104.365 32.9533 104.331 33.1095C104.296 33.2657 104.278 33.4593 104.278 33.692V36.9966C104.278 37.2243 104.296 37.4112 104.331 37.56C104.365 37.7095 104.417 37.8292 104.487 37.9198C104.556 38.0103 104.644 38.0743 104.75 38.1109C104.857 38.1483 104.981 38.1665 105.124 38.1665Z" fill="#ED611A"/>
<path d="M109.116 31.667H110.538V38.0643H112.476V38.931H109.116V31.667Z" fill="#ED611A"/>
<path d="M113.682 31.667H115.115V36.9916C115.115 37.2193 115.129 37.407 115.158 37.5574C115.188 37.7087 115.235 37.8283 115.298 37.9172C115.363 38.0061 115.444 38.0701 115.545 38.1083C115.646 38.1466 115.766 38.1657 115.905 38.1657C116.044 38.1657 116.166 38.1466 116.27 38.1083C116.374 38.0701 116.46 38.0061 116.528 37.9172C116.596 37.8283 116.647 37.7087 116.682 37.5574C116.717 37.407 116.734 37.2193 116.734 36.9916V31.667H118.15V36.6983C118.15 37.0531 118.114 37.3563 118.041 37.6089C117.968 37.8615 117.87 38.0726 117.75 38.2421C117.629 38.4125 117.491 38.5471 117.335 38.6468C117.179 38.7457 117.018 38.8213 116.852 38.8745C116.685 38.926 116.52 38.9592 116.355 38.9742C116.19 38.9883 116.04 38.9949 115.905 38.9949C115.77 38.9949 115.62 38.9883 115.457 38.9742C115.294 38.9592 115.131 38.926 114.966 38.8745C114.802 38.8213 114.642 38.7457 114.488 38.6468C114.335 38.5471 114.198 38.4125 114.077 38.2421C113.956 38.0726 113.86 37.8616 113.789 37.6106C113.717 37.3597 113.682 37.0564 113.682 36.6983V31.667Z" fill="#ED611A"/>
<path d="M120.925 32.5353H119.415V31.6678H123.85V32.5353H122.346V38.9318H120.925V32.5353Z" fill="#ED611A"/>
<path d="M126.57 31.6678H125.148V38.9318H126.57V31.6678Z" fill="#ED611A"/>
<path d="M130.586 38.9958C130.436 38.9958 130.273 38.9867 130.097 38.9676C129.921 38.9493 129.748 38.9111 129.576 38.8512C129.404 38.7914 129.238 38.7075 129.079 38.5986C128.92 38.4889 128.779 38.3452 128.657 38.1665C128.534 37.9879 128.435 37.7677 128.362 37.5051C128.289 37.2425 128.253 36.9301 128.253 36.567V33.9945C128.253 33.6289 128.29 33.3156 128.366 33.0564C128.44 32.7971 128.54 32.5786 128.665 32.4016C128.789 32.2246 128.931 32.0833 129.09 31.9786C129.249 31.8731 129.415 31.7933 129.59 31.7377C129.763 31.6828 129.936 31.6463 130.108 31.6296C130.281 31.613 130.44 31.6039 130.586 31.6039C130.725 31.6039 130.879 31.6114 131.05 31.628C131.22 31.6429 131.39 31.677 131.56 31.7294C131.731 31.7817 131.896 31.8598 132.058 31.9637C132.219 32.0667 132.361 32.2071 132.485 32.385C132.61 32.5611 132.71 32.7813 132.785 33.043C132.859 33.3064 132.898 33.6222 132.898 33.9945V36.567C132.898 36.9276 132.859 37.2376 132.782 37.4968C132.705 37.7561 132.604 37.9763 132.48 38.1557C132.355 38.3361 132.212 38.4806 132.049 38.5895C131.886 38.6983 131.719 38.7839 131.55 38.8446C131.379 38.9061 131.21 38.946 131.041 38.9659C130.873 38.9858 130.721 38.9958 130.586 38.9958ZM130.586 38.1665C130.725 38.1665 130.847 38.1483 130.951 38.1109C131.055 38.0743 131.141 38.0103 131.209 37.9198C131.277 37.8292 131.328 37.7095 131.363 37.56C131.398 37.4112 131.415 37.2243 131.415 36.9966V33.692C131.415 33.4593 131.398 33.2657 131.363 33.1095C131.328 32.9533 131.277 32.8278 131.209 32.7331C131.141 32.6384 131.055 32.5711 130.951 32.5312C130.847 32.4913 130.725 32.4714 130.586 32.4714C130.443 32.4714 130.319 32.4913 130.212 32.5312C130.106 32.5711 130.018 32.6384 129.949 32.7331C129.88 32.8278 129.827 32.9533 129.793 33.1095C129.758 33.2657 129.74 33.4593 129.74 33.692V36.9966C129.74 37.2243 129.758 37.4112 129.793 37.56C129.827 37.7095 129.88 37.8292 129.949 37.9198C130.018 38.0103 130.106 38.0743 130.212 38.1109C130.319 38.1483 130.443 38.1665 130.586 38.1665Z" fill="#ED611A"/>
<path d="M134.579 31.667H135.733L138.005 36.5288H138.039C138.027 36.4149 138.012 36.2895 137.994 36.1499C137.975 36.0111 137.959 35.8532 137.945 35.6754C137.93 35.4984 137.917 35.2981 137.906 35.0738C137.896 34.8503 137.89 34.5977 137.89 34.3168V31.667H139.164V38.931H137.999L135.738 34.198H135.694C135.704 34.3251 135.719 34.4639 135.738 34.6126C135.757 34.7614 135.773 34.9367 135.788 35.1378C135.802 35.3397 135.815 35.574 135.826 35.8416C135.837 36.11 135.842 36.4274 135.842 36.7963V38.931H134.579V31.667Z" fill="#ED611A"/>
<path d="M140.741 37.4602C140.741 37.304 140.753 37.1603 140.777 37.0282C140.8 36.8969 140.836 36.754 140.884 36.6011H141.987V36.9534C141.987 37.1495 142.003 37.3231 142.034 37.4727C142.065 37.6231 142.117 37.7502 142.188 37.8541C142.26 37.9571 142.354 38.0352 142.473 38.0876C142.592 38.1399 142.737 38.1665 142.91 38.1665C143.18 38.1665 143.387 38.1084 143.53 37.9937C143.673 37.879 143.744 37.7112 143.744 37.4893C143.744 37.3763 143.734 37.2724 143.714 37.1769C143.694 37.0822 143.659 36.9883 143.61 36.8944C143.561 36.8005 143.493 36.7024 143.41 36.5994C143.325 36.4955 143.217 36.38 143.085 36.2521L141.603 34.8868C141.34 34.6259 141.137 34.3634 140.993 34.0983C140.851 33.8324 140.78 33.5499 140.78 33.2499C140.78 33.009 140.828 32.7879 140.925 32.586C141.021 32.3849 141.162 32.2113 141.345 32.065C141.528 31.9196 141.754 31.8058 142.024 31.7252C142.292 31.6437 142.597 31.603 142.937 31.603C143.351 31.603 143.695 31.6487 143.972 31.7401C144.248 31.8307 144.469 31.9495 144.634 32.0974C144.798 32.2445 144.914 32.4099 144.982 32.5927C145.05 32.7755 145.084 32.9591 145.084 33.1436C145.084 33.299 145.068 33.4435 145.037 33.5748C145.006 33.7069 144.97 33.8524 144.929 34.0111H143.832V33.6662C143.832 33.2807 143.76 32.9849 143.618 32.7796C143.475 32.5744 143.243 32.4714 142.92 32.4714C142.653 32.4714 142.454 32.5287 142.323 32.6434C142.191 32.758 142.125 32.9126 142.125 33.1054C142.125 33.2067 142.135 33.299 142.155 33.3812C142.175 33.4635 142.205 33.5399 142.243 33.6089C142.281 33.6779 142.328 33.746 142.383 33.8108C142.437 33.8756 142.5 33.9438 142.569 34.0152L144.221 35.5632C144.522 35.8665 144.752 36.1582 144.914 36.4374C145.075 36.7166 145.155 37.0115 145.155 37.324C145.155 37.5824 145.103 37.8142 144.998 38.0219C144.894 38.228 144.745 38.4042 144.551 38.5487C144.358 38.6933 144.122 38.8047 143.848 38.8828C143.574 38.9609 143.264 38.9999 142.92 38.9999C142.496 38.9999 142.144 38.9559 141.863 38.8678C141.584 38.7806 141.36 38.6634 141.194 38.5188C141.027 38.3742 140.91 38.2097 140.843 38.0253C140.776 37.8416 140.741 37.653 140.741 37.4602Z" fill="#ED611A"/>
<path d="M13.4726 4.53575C13.3729 4.7252 13.2283 4.8191 13.0389 4.8191C12.8943 4.8191 12.7073 4.71689 12.4788 4.51082C12.2503 4.30558 11.9404 4.07708 11.5507 3.82697C11.1602 3.57686 10.6716 3.34669 10.0866 3.1348C9.50163 2.92375 8.77956 2.81821 7.92121 2.81821C7.06204 2.81821 6.30589 2.94037 5.65361 3.18549C5.00133 3.42978 4.45543 3.76299 4.01504 4.1851C3.57465 4.60804 3.23977 5.09745 3.01043 5.65334C2.78193 6.20923 2.6681 6.79254 2.6681 7.4041C2.6681 8.20428 2.83761 8.8657 3.17663 9.38752C3.51731 9.911 3.96516 10.3547 4.52105 10.722C5.07861 11.0884 5.71012 11.3967 6.41724 11.6476C7.12353 11.8977 7.84976 12.1445 8.5951 12.3897C9.34127 12.634 10.0683 12.9032 10.7746 13.1981C11.4817 13.4923 12.1132 13.8621 12.67 14.3066C13.2258 14.7512 13.6737 15.2987 14.0144 15.9493C14.3534 16.5991 14.5237 17.4085 14.5237 18.3748C14.5237 19.3645 14.3534 20.2959 14.0152 21.1684C13.6762 22.0409 13.1843 22.7995 12.5395 23.4443C11.8939 24.0891 11.1053 24.5976 10.1714 24.9699C9.23824 25.3421 8.1705 25.5283 6.96981 25.5283C5.41349 25.5283 4.07403 25.2532 2.95145 24.7032C1.82887 24.1531 0.845052 23.3994 0 22.4439L0.467802 21.7101C0.60075 21.5431 0.756137 21.46 0.933955 21.46C1.0345 21.46 1.16246 21.5265 1.31785 21.6603C1.47406 21.7932 1.66351 21.9578 1.88619 22.1522C2.10805 22.3466 2.3756 22.5577 2.6872 22.7854C2.9988 23.013 3.36025 23.2249 3.77239 23.4194C4.1837 23.6138 4.65734 23.7775 5.19245 23.9113C5.72591 24.0442 6.33249 24.1107 7.01218 24.1107C7.94698 24.1107 8.78206 23.9695 9.51577 23.6861C10.2511 23.4019 10.8718 23.0164 11.3787 22.5269C11.8856 22.0375 12.2711 21.4576 12.5387 20.7845C12.8054 20.1123 12.9392 19.3927 12.9392 18.6249C12.9392 17.7915 12.7697 17.1052 12.4298 16.5659C12.09 16.0266 11.6421 15.5771 11.0862 15.2156C10.5287 14.8542 9.89716 14.5517 9.19004 14.3066C8.48376 14.0623 7.75753 13.823 7.01218 13.5895C6.26601 13.356 5.53894 13.0951 4.83265 12.806C4.12553 12.5168 3.49402 12.1479 2.9373 11.6975C2.38058 11.2471 1.93273 10.6862 1.59288 10.0132C1.25386 9.34098 1.08352 8.49844 1.08352 7.4872C1.08352 6.69782 1.23474 5.93667 1.53471 5.20296C1.8355 4.46925 2.27507 3.82198 2.85423 3.26027C3.43256 2.6994 4.14798 2.24903 4.99968 1.90918C5.85138 1.57099 6.82189 1.40149 7.9129 1.40149C9.13768 1.40149 10.2362 1.59592 11.2117 1.9848C12.1847 2.37367 13.0721 2.96862 13.8731 3.7688L13.4726 4.53575Z" fill="#18316F"/>
<path d="M24.2613 8.40369C25.1953 8.40369 26.0594 8.56572 26.8546 8.88729C27.649 9.20969 28.3378 9.67998 28.9212 10.2965C29.5053 10.9131 29.9606 11.6717 30.2889 12.5724C30.6171 13.4732 30.7807 14.5068 30.7807 15.6735C30.7807 15.9186 30.745 16.0856 30.6719 16.1745C30.6004 16.2634 30.4866 16.3075 30.3312 16.3075H18.3592V16.624C18.3592 17.8696 18.503 18.9647 18.793 19.9087C19.0813 20.8543 19.4926 21.6462 20.0261 22.2851C20.5604 22.9241 21.2043 23.4052 21.9596 23.7276C22.7166 24.05 23.5608 24.2112 24.4956 24.2112C25.3282 24.2112 26.0503 24.119 26.6618 23.9362C27.2734 23.7526 27.7878 23.5465 28.2049 23.3188C28.622 23.0911 28.9527 22.8851 29.1962 22.7023C29.4413 22.5186 29.6191 22.4272 29.7305 22.4272C29.8751 22.4272 29.9856 22.4829 30.0637 22.5934L30.4974 23.1269C30.2307 23.4609 29.8775 23.7717 29.4388 24.0608C28.9992 24.35 28.5098 24.5968 27.9714 24.8028C27.4321 25.0089 26.8546 25.1726 26.2372 25.2948C25.6199 25.4169 25.0008 25.4784 24.3776 25.4784C23.2442 25.4784 22.2106 25.2806 21.2766 24.8859C20.3435 24.4921 19.5416 23.9163 18.8736 23.1601C18.2047 22.4048 17.687 21.4791 17.3222 20.384C16.9575 19.2897 16.7747 18.0358 16.7747 16.624C16.7747 15.435 16.9433 14.3373 17.2832 13.3311C17.6222 12.3248 18.1116 11.4582 18.7506 10.7303C19.3896 10.0024 20.1731 9.43236 21.1013 9.02105C22.0303 8.60974 23.0831 8.40369 24.2613 8.40369ZM24.2862 9.58775C23.4304 9.58775 22.6651 9.72152 21.9879 9.98825C21.3115 10.255 20.7257 10.638 20.2313 11.1383C19.7377 11.6385 19.3381 12.2392 19.0331 12.9397C18.7273 13.6393 18.5254 14.4237 18.4249 15.2904H29.3474C29.3474 14.4013 29.2244 13.6036 28.981 12.8973C28.7367 12.1919 28.3927 11.5944 27.9481 11.105C27.5036 10.6164 26.9709 10.2409 26.3502 9.97996C25.7279 9.71905 25.0407 9.58775 24.2862 9.58775Z" fill="#18316F"/>
<path d="M39.6121 25.2615H38.7097L31.7075 8.67126H32.9572C33.1126 8.67126 33.2381 8.71281 33.3328 8.7959C33.4267 8.87982 33.4957 8.97122 33.5405 9.07093L39.0097 22.1605C39.121 22.4165 39.2041 22.6607 39.2598 22.8942C39.3146 23.1269 39.3711 23.3604 39.4268 23.5939C39.4825 23.3604 39.0421 23.1244 39.1036 22.8851C39.1651 22.6466 39.2457 22.4048 39.3454 22.1605L44.8478 9.07093C44.9035 8.94878 44.9782 8.85158 45.073 8.77929C45.1669 8.707 45.2815 8.67126 45.4145 8.67126H46.6152L39.6121 25.2615Z" fill="#18316F"/>
<path d="M57.9911 25.2607C57.6579 25.2607 57.4518 25.1053 57.3737 24.7946L57.1402 22.6765C56.6849 23.1211 56.2312 23.5216 55.7817 23.8772C55.3313 24.2329 54.8618 24.5328 54.3724 24.7771C53.8838 25.0222 53.3562 25.2084 52.7878 25.3363C52.2212 25.4635 51.5996 25.5283 50.9207 25.5283C50.3541 25.5283 49.804 25.4443 49.2697 25.2782C48.7371 25.1111 48.2643 24.8552 47.853 24.5112C47.4417 24.1664 47.111 23.7243 46.8608 23.1851C46.6116 22.6458 46.4861 21.9985 46.4861 21.2424C46.4861 20.5427 46.6864 19.8921 47.086 19.2913C47.4865 18.6914 48.1114 18.1696 48.9623 17.7242C49.8123 17.2797 50.9075 16.924 52.2469 16.6573C53.5864 16.3906 55.195 16.2352 57.0746 16.1903V14.4562C57.0746 12.9223 56.743 11.7415 56.0816 10.9131C55.421 10.0855 54.4397 9.67088 53.1393 9.67088C52.3383 9.67088 51.6578 9.78223 51.0969 10.0049C50.5352 10.2268 50.0591 10.4711 49.6702 10.7378C49.2813 11.0045 48.9648 11.2496 48.7196 11.4715C48.4762 11.6942 48.2701 11.8055 48.1039 11.8055C47.8812 11.8055 47.7134 11.705 47.6029 11.5047L47.3203 11.022C48.187 10.1545 49.0977 9.49887 50.0549 9.05433C51.0105 8.60978 52.094 8.38708 53.3055 8.38708C54.1946 8.38708 54.9724 8.52919 55.6396 8.81254C56.3077 9.09589 56.8594 9.50137 57.2989 10.0298C57.7385 10.5575 58.0692 11.1964 58.2911 11.9468C58.5129 12.6971 58.6251 13.5339 58.6251 14.4562V25.2607H57.9911ZM51.3212 24.3774C51.966 24.3774 52.5577 24.3085 53.097 24.1689C53.6362 24.0301 54.1364 23.8357 54.5976 23.5856C55.0588 23.3355 55.49 23.038 55.8905 22.6932C56.2902 22.3492 56.6849 21.9761 57.0746 21.5764V17.2572C55.4958 17.3021 54.1364 17.4218 52.9972 17.6162C51.858 17.8106 50.9174 18.0749 50.1787 18.4081C49.44 18.7413 48.8949 19.1393 48.5451 19.6005C48.1945 20.0616 48.02 20.5868 48.02 21.1759C48.02 21.7318 48.1114 22.2129 48.295 22.6184C48.4786 23.0239 48.7196 23.3579 49.0204 23.6188C49.3204 23.8797 49.6702 24.0717 50.0707 24.1938C50.4704 24.3168 50.8875 24.3774 51.3212 24.3774Z" fill="#18316F"/>
<path d="M61.6257 25.2614V8.67117H62.4592C62.6486 8.67117 62.7849 8.71023 62.868 8.78751C62.9511 8.86562 62.9984 8.99856 63.0092 9.18801L63.143 12.6895C63.6773 11.3443 64.3877 10.2915 65.2768 9.5295C66.1668 8.76838 67.2611 8.38782 68.5615 8.38782C69.0625 8.38782 69.5237 8.44017 69.9458 8.5457C70.3679 8.65122 70.7684 8.80412 71.1465 9.00437L70.9296 10.1045C70.8956 10.2832 70.785 10.3712 70.5964 10.3712C70.5291 10.3712 70.4352 10.3496 70.3131 10.3048C70.1901 10.2607 70.0372 10.2109 69.8536 10.1552C69.6708 10.0995 69.4456 10.0497 69.1789 10.0048C68.9121 9.96077 68.6064 9.93832 68.2615 9.93832C67.0052 9.93832 65.9748 10.3272 65.1688 11.105C64.362 11.8835 63.7097 13.0061 63.2095 14.4735V25.2614H61.6257Z" fill="#18316F"/>
<path d="M78.618 8.40369C79.5511 8.40369 80.4153 8.56572 81.2105 8.88729C82.0049 9.20969 82.6945 9.67998 83.2778 10.2965C83.8612 10.9131 84.3173 11.6717 84.6447 12.5724C84.9729 13.4732 85.1366 14.5068 85.1366 15.6735C85.1366 15.9186 85.1009 16.0856 85.0286 16.1745C84.9571 16.2634 84.8425 16.3075 84.6879 16.3075H72.7151V16.624C72.7151 17.8696 72.8597 18.9647 73.1488 19.9087C73.4372 20.8543 73.8485 21.6462 74.3819 22.2851C74.9162 22.9241 75.5602 23.4052 76.3172 23.7276C77.0725 24.05 77.9167 24.2112 78.8515 24.2112C79.6849 24.2112 80.4078 24.119 81.0194 23.9362C81.6293 23.7526 82.1445 23.5465 82.5607 23.3188C82.9779 23.0911 83.3086 22.8851 83.5537 22.7023C83.7972 22.5186 83.975 22.4272 84.0872 22.4272C84.2309 22.4272 84.3431 22.4829 84.4204 22.5934L84.8541 23.1269C84.5866 23.4609 84.2334 23.7717 83.7955 24.0608C83.3559 24.35 82.8674 24.5968 82.3273 24.8028C81.788 25.0089 81.2105 25.1726 80.5931 25.2948C79.9766 25.4169 79.3567 25.4784 78.7343 25.4784C77.6009 25.4784 76.5664 25.2806 75.6333 24.8859C74.6994 24.4921 73.8983 23.9163 73.2294 23.1601C72.5605 22.4048 72.0437 21.4791 71.6789 20.384C71.3133 19.2897 71.1313 18.0358 71.1313 16.624C71.1313 15.435 71.3009 14.3373 71.6399 13.3311C71.9781 12.3248 72.4675 11.4582 73.1065 10.7303C73.7463 10.0024 74.5298 9.43236 75.458 9.02105C76.3861 8.60974 77.4397 8.40369 78.618 8.40369ZM78.6421 9.58775C77.7879 9.58775 77.0218 9.72152 76.3446 9.98825C75.6674 10.255 75.0824 10.638 74.588 11.1383C74.0944 11.6385 73.6948 12.2392 73.3898 12.9397C73.084 13.6393 72.8813 14.4237 72.7824 15.2904H83.7033C83.7033 14.4013 83.5811 13.6036 83.3368 12.8973C83.0925 12.1919 82.7485 11.5944 82.3048 11.105C81.8611 10.6164 81.3285 10.2409 80.7061 9.97996C80.0846 9.71905 79.3966 9.58775 78.6421 9.58775Z" fill="#18316F"/>
<path d="M100.505 25.2606C100.23 25.2606 100.07 25.1168 100.027 24.8276L99.8591 22.2094C99.1246 23.2098 98.2654 24.005 97.2791 24.5941C96.2944 25.1833 95.1901 25.4774 93.9662 25.4774C91.9287 25.4774 90.34 24.772 89.1992 23.3602C88.0591 21.9485 87.4883 19.8305 87.4883 17.007C87.4883 15.7955 87.647 14.6646 87.9636 13.6143C88.2818 12.5632 88.7488 11.6525 89.3662 10.8797C89.9844 10.1069 90.7405 9.4987 91.6371 9.05333C92.5337 8.60961 93.5657 8.38692 94.7348 8.38692C95.8582 8.38692 96.832 8.5955 97.6555 9.01179C98.4798 9.42892 99.1927 10.0372 99.7935 10.8382V1H101.378V25.2606H100.505ZM94.4165 24.1936C95.5184 24.1936 96.5146 23.9103 97.4062 23.3436C98.2961 22.7761 99.0922 21.9875 99.7935 20.9755V12.2217C99.1478 11.2769 98.4382 10.6097 97.6646 10.2208C96.8902 9.83191 96.0136 9.63747 95.0339 9.63747C94.0543 9.63747 93.1967 9.81529 92.4622 10.1709C91.7277 10.5266 91.112 11.0293 90.6167 11.6799C90.1215 12.3297 89.7484 13.1082 89.4975 14.014C89.2474 14.9205 89.1227 15.9176 89.1227 17.007C89.1227 19.4748 89.5781 21.2896 90.4912 22.4512C91.4053 23.6128 92.7123 24.1936 94.4165 24.1936Z" fill="#18316F"/>
<path d="M100.505 25.2606C100.23 25.2606 100.07 25.1168 100.027 24.8276L99.8591 22.2094C99.1246 23.2098 98.2654 24.005 97.2791 24.5941C96.2944 25.1833 95.1901 25.4774 93.9662 25.4774C91.9287 25.4774 90.34 24.772 89.1992 23.3602C88.0591 21.9485 87.4883 19.8305 87.4883 17.007C87.4883 15.7955 87.647 14.6646 87.9636 13.6143C88.2818 12.5632 88.7488 11.6525 89.3662 10.8797C89.9844 10.1069 90.7405 9.4987 91.6371 9.05333C92.5337 8.60961 93.5657 8.38692 94.7348 8.38692C95.8582 8.38692 96.832 8.5955 97.6555 9.01179C98.4798 9.42892 99.1927 10.0372 99.7935 10.8382V1H101.378V25.2606H100.505V25.2606ZM94.4165 24.1936C95.5184 24.1936 96.5146 23.9103 97.4062 23.3436C98.2961 22.7761 99.0922 21.9875 99.7935 20.9755V12.2217C99.1478 11.2769 98.4382 10.6097 97.6646 10.2208C96.8902 9.8319 96.0136 9.63747 95.0339 9.63747C94.0543 9.63747 93.1967 9.81529 92.4622 10.1709C91.7277 10.5266 91.112 11.0293 90.6167 11.6799C90.1215 12.3297 89.7484 13.1083 89.4975 14.014C89.2474 14.9205 89.1227 15.9176 89.1227 17.007C89.1227 19.4748 89.5781 21.2896 90.4912 22.4512C91.4053 23.6128 92.7123 24.1936 94.4165 24.1936Z" stroke="#18316F" stroke-width="1.366" stroke-miterlimit="10"/>
<path d="M111.865 8.40369C112.798 8.40369 113.663 8.56572 114.458 8.88729C115.252 9.20969 115.942 9.67998 116.525 10.2965C117.108 10.9131 117.565 11.6717 117.892 12.5724C118.22 13.4732 118.384 14.5068 118.384 15.6735C118.384 15.9186 118.348 16.0856 118.276 16.1745C118.204 16.2634 118.09 16.3075 117.935 16.3075H105.962V16.624C105.962 17.8696 106.107 18.9647 106.396 19.9087C106.684 20.8543 107.096 21.6462 107.629 22.2851C108.164 22.9241 108.807 23.4052 109.564 23.7276C110.32 24.05 111.164 24.2112 112.099 24.2112C112.932 24.2112 113.655 24.119 114.266 23.9362C114.877 23.7526 115.392 23.5465 115.808 23.3188C116.225 23.0911 116.556 22.8851 116.801 22.7023C117.044 22.5186 117.222 22.4272 117.334 22.4272C117.478 22.4272 117.59 22.4829 117.668 22.5934L118.101 23.1269C117.834 23.4609 117.481 23.7717 117.043 24.0608C116.603 24.35 116.115 24.5968 115.575 24.8028C115.035 25.0089 114.458 25.1726 113.84 25.2948C113.224 25.4169 112.604 25.4784 111.982 25.4784C110.848 25.4784 109.814 25.2806 108.881 24.8859C107.947 24.4921 107.146 23.9163 106.477 23.1601C105.808 22.4048 105.29 21.4791 104.926 20.384C104.561 19.2897 104.379 18.0358 104.379 16.624C104.379 15.435 104.548 14.3373 104.887 13.3311C105.225 12.3248 105.715 11.4582 106.354 10.7303C106.994 10.0024 107.777 9.43236 108.705 9.02105C109.633 8.60974 110.687 8.40369 111.865 8.40369ZM111.889 9.58775C111.035 9.58775 110.269 9.72152 109.592 9.98825C108.915 10.255 108.33 10.638 107.835 11.1383C107.342 11.6385 106.942 12.2392 106.637 12.9397C106.331 13.6393 106.129 14.4237 106.03 15.2904H116.951C116.951 14.4013 116.828 13.6036 116.584 12.8973C116.34 12.1919 115.996 11.5944 115.552 11.105C115.108 10.6164 114.576 10.2409 113.953 9.97996C113.332 9.71905 112.644 9.58775 111.889 9.58775Z" fill="#18316F"/>
<path d="M111.865 8.40369C112.798 8.40369 113.663 8.56572 114.458 8.88729C115.252 9.20969 115.942 9.67998 116.525 10.2965C117.108 10.9131 117.565 11.6717 117.892 12.5724C118.22 13.4732 118.384 14.5068 118.384 15.6735C118.384 15.9186 118.348 16.0856 118.276 16.1745C118.204 16.2634 118.09 16.3075 117.935 16.3075H105.962V16.624C105.962 17.8696 106.107 18.9647 106.396 19.9087C106.684 20.8543 107.096 21.6462 107.629 22.2851C108.164 22.9241 108.807 23.4052 109.564 23.7276C110.32 24.05 111.164 24.2112 112.099 24.2112C112.932 24.2112 113.655 24.119 114.266 23.9362C114.877 23.7526 115.392 23.5465 115.808 23.3188C116.225 23.0911 116.556 22.8851 116.801 22.7023C117.044 22.5186 117.222 22.4272 117.334 22.4272C117.478 22.4272 117.59 22.4829 117.668 22.5934L118.101 23.1269C117.834 23.4609 117.481 23.7717 117.043 24.0608C116.603 24.35 116.115 24.5968 115.575 24.8028C115.035 25.0089 114.458 25.1726 113.84 25.2948C113.224 25.4169 112.604 25.4784 111.982 25.4784C110.848 25.4784 109.814 25.2806 108.881 24.8859C107.947 24.4921 107.146 23.9163 106.477 23.1601C105.808 22.4048 105.29 21.4791 104.926 20.384C104.561 19.2897 104.379 18.0358 104.379 16.624C104.379 15.435 104.548 14.3373 104.887 13.3311C105.225 12.3248 105.715 11.4582 106.354 10.7303C106.994 10.0024 107.777 9.43236 108.705 9.02105C109.633 8.60974 110.687 8.40369 111.865 8.40369ZM111.889 9.58775C111.035 9.58775 110.269 9.72152 109.592 9.98825C108.915 10.255 108.33 10.638 107.835 11.1383C107.342 11.6385 106.942 12.2392 106.637 12.9397C106.331 13.6393 106.129 14.4237 106.03 15.2904H116.951C116.951 14.4013 116.828 13.6036 116.584 12.8973C116.34 12.1919 115.996 11.5945 115.552 11.105C115.108 10.6164 114.576 10.2409 113.953 9.97996C113.332 9.71905 112.644 9.58775 111.889 9.58775Z" stroke="#18316F" stroke-width="1.366" stroke-miterlimit="10"/>
<path d="M121.986 25.2615V8.67124H122.853C123.142 8.67124 123.309 8.81001 123.353 9.08754L123.503 11.5886C124.258 10.633 125.139 9.86361 126.145 9.27947C127.152 8.69616 128.272 8.40369 129.505 8.40369C130.417 8.40369 131.22 8.54827 131.915 8.83743C132.609 9.1266 133.185 9.5437 133.64 10.088C134.097 10.633 134.441 11.2887 134.675 12.0556C134.908 12.8225 135.025 13.69 135.025 14.6564V25.2615H133.44V14.6564C133.44 13.1009 133.085 11.8803 132.374 10.997C131.663 10.1129 130.573 9.67168 129.106 9.67168C128.016 9.67168 127.005 9.95253 126.071 10.5134C125.138 11.0751 124.303 11.8445 123.57 12.8225V25.2615H121.986Z" fill="#18316F"/>
<path d="M121.986 25.2615V8.67124H122.853C123.142 8.67124 123.309 8.81001 123.353 9.08754L123.503 11.5886C124.258 10.633 125.139 9.86361 126.145 9.27947C127.152 8.69616 128.272 8.40369 129.505 8.40369C130.417 8.40369 131.22 8.54827 131.915 8.83743C132.609 9.1266 133.185 9.5437 133.64 10.088C134.097 10.633 134.441 11.2887 134.675 12.0556C134.908 12.8225 135.025 13.69 135.025 14.6564V25.2615H133.44V14.6564C133.44 13.1009 133.085 11.8803 132.374 10.997C131.663 10.1129 130.573 9.67168 129.106 9.67168C128.016 9.67168 127.005 9.95253 126.071 10.5134C125.138 11.0751 124.303 11.8445 123.57 12.8225V25.2615H121.986V25.2615Z" stroke="#18316F" stroke-width="1.366" stroke-miterlimit="10"/>
<path d="M138.03 2.85559H139.581V9.18725H144.799V10.3713H139.581V21.6262C139.581 22.0824 139.639 22.4738 139.756 22.802C139.873 23.1302 140.033 23.3994 140.239 23.6105C140.445 23.8215 140.686 23.9769 140.964 24.0775C141.243 24.1772 141.543 24.227 141.864 24.227C142.265 24.227 142.61 24.1688 142.899 24.0525C143.188 23.9362 143.437 23.8082 143.649 23.6686C143.86 23.5299 144.032 23.4019 144.166 23.2856C144.3 23.1684 144.404 23.1103 144.483 23.1103C144.572 23.1103 144.66 23.1659 144.75 23.2773L145.184 23.9769C144.761 24.4439 144.224 24.8195 143.574 25.1028C142.925 25.3862 142.249 25.5282 141.549 25.5282C140.425 25.5282 139.553 25.2166 138.931 24.5943C138.319 23.9827 138.061 23.072 137.996 21.7093L138.03 2.85559Z" fill="#18316F"/>
<path d="M138.03 2.85559H139.581V9.18725H144.799V10.3713H139.581V21.6262C139.581 22.0824 139.639 22.4738 139.756 22.802C139.873 23.1302 140.033 23.3994 140.239 23.6105C140.445 23.8215 140.686 23.9769 140.964 24.0775C141.243 24.1772 141.543 24.227 141.864 24.227C142.265 24.227 142.61 24.1688 142.899 24.0525C143.188 23.9362 143.437 23.8082 143.649 23.6686C143.86 23.5299 144.032 23.4019 144.166 23.2856C144.3 23.1684 144.404 23.1103 144.483 23.1103C144.572 23.1103 144.66 23.1659 144.75 23.2773L145.184 23.9769C144.761 24.4439 144.224 24.8195 143.574 25.1028C142.925 25.3861 142.249 25.5282 141.549 25.5282C140.425 25.5282 139.553 25.2166 138.931 24.5943C138.319 23.9827 138.061 23.072 137.996 21.7093L138.03 2.85559Z" stroke="#18316F" stroke-width="1.366" stroke-miterlimit="10"/>
<path d="M59.1451 5.25439H47.9741V6.24984H59.1451V5.25439Z" fill="#ED611A"/>
<path d="M150.428 6.62964V7.12571H149.018V10.992H148.428V7.12571H147.012V6.62964H150.428Z" fill="#18316F"/>
<path d="M153.27 9.56861C153.29 9.62263 153.312 9.67665 153.332 9.73149C153.352 9.67499 153.373 9.62013 153.396 9.56861C153.418 9.5171 153.443 9.46475 153.471 9.41157L154.949 6.73018C154.975 6.68365 155.002 6.65457 155.03 6.6446C155.059 6.63463 155.099 6.62964 155.152 6.62964H155.588V10.992H155.07V7.78629C155.07 7.74391 155.071 7.6982 155.073 7.64918C155.075 7.60098 155.078 7.55114 155.082 7.50045L153.588 10.2275C153.536 10.3189 153.466 10.3646 153.375 10.3646H153.289C153.198 10.3646 153.127 10.3189 153.076 10.2275L151.549 7.4913C151.555 7.54365 151.559 7.59517 151.562 7.64669C151.565 7.69738 151.567 7.74391 151.567 7.78629V10.992H151.049V6.62964H151.484C151.537 6.62964 151.578 6.63463 151.606 6.6446C151.634 6.65457 151.662 6.68365 151.688 6.73018L153.195 9.4149C153.224 9.46392 153.249 9.5146 153.27 9.56861Z" fill="#18316F"/>
</svg>
