<svg width="30" height="31" viewBox="0 0 30 31" fill="none" xmlns="http://www.w3.org/2000/svg">
<path fill-rule="evenodd" clip-rule="evenodd" d="M2.68306 20.1519C6.17329 24.4072 12.7036 26.0356 18.3056 22.3999C18.4252 22.5596 18.5351 22.7173 18.6416 22.8706C18.8613 23.1865 19.0673 23.4829 19.3168 23.7358C20.6699 25.1094 22.0292 26.4766 23.394 27.8389C24.1191 28.563 24.8457 29.2856 25.5737 30.0078C26.7402 31.1645 28.2895 31.2378 29.2905 30.2148C30.3173 29.1655 30.227 27.6992 29.0361 26.4985C27.1577 24.606 25.2758 22.7148 23.3764 20.8442C23.0722 20.5449 22.7485 20.2646 22.4189 19.9868C22.1245 19.7383 21.8247 19.4922 21.5297 19.2368C25.5908 12.5596 22.6298 5.80224 18.3388 2.94531C13.4677 -0.297364 7.03706 0.435057 3.07661 4.7251C-0.859425 8.98779 -1.04937 15.6006 2.68306 20.1519ZM11.6884 21.4448C6.79682 21.3975 2.97212 17.5215 2.98091 12.6206C2.9897 7.75928 6.91841 3.84473 11.7685 3.8623C16.5786 3.88135 20.5288 7.87256 20.5131 12.7021C20.499 17.5317 16.5004 21.4917 11.6884 21.4448ZM12.5063 11.9502C13.5576 12.4546 14.8276 13.0635 14.8276 14.6318C14.8276 15.9697 14.0791 16.9893 12.6484 17.2974V18.7744H11.2817V17.3721C10.4619 17.2749 9.48677 16.9165 8.81831 16.311L9.71675 14.9189C10.4287 15.4634 11.0502 15.7417 11.7133 15.7417C12.5073 15.7417 12.8554 15.4131 12.8554 14.7744C12.8554 14.1558 12.1718 13.8081 11.3925 13.4116C10.3603 12.8862 9.15962 12.2754 9.15962 10.8359C9.15962 9.46484 9.96577 8.52344 11.2817 8.25928V6.80469H12.6484V8.22412C13.5327 8.35986 14.1855 8.7915 14.725 9.36377L13.6943 10.5435C13.186 10.0806 12.7543 9.83691 12.1694 9.83691C11.4956 9.83691 11.1303 10.1084 11.1303 10.7383C11.1303 11.2905 11.7636 11.5942 12.5063 11.9502Z" fill="#18316F"/>
</svg>
