<svg width="32" height="31" viewBox="0 0 32 31" fill="none" xmlns="http://www.w3.org/2000/svg">
<path d="M31.9887 22.9321C31.8312 22.9276 31.6737 22.92 31.5148 22.92C25.9503 22.92 23.9093 22.92 18.3449 22.92H17.7998C17.7998 22.1281 17.8346 21.3756 17.7952 20.6276C17.5409 15.8717 15.6512 11.9683 11.7524 9.12482C11.6963 9.08394 11.6449 9.03849 11.5146 8.9325H11.9068C15.8314 8.9325 16.2327 8.931 20.1573 8.93403C22.9766 8.93554 25.5128 9.7577 27.6855 11.5883C29.3208 12.9646 30.4624 14.6907 31.1877 16.6939C31.6026 17.8416 31.8494 19.0257 31.9372 20.2446C31.9433 20.3384 31.9705 20.4323 31.9887 20.5262V22.9321Z" fill="#002D74"/>
<path d="M11.5353 14.7039C11.5307 17.8896 8.93853 20.4681 5.7513 20.456C2.58374 20.4424 0.00669408 17.8548 0.0112365 14.6887C0.0157788 11.5121 2.62462 8.9184 5.80126 8.93354C8.96882 8.94716 11.5398 11.5348 11.5353 14.7039ZM5.78764 16.7404C6.91263 16.7358 7.81505 15.8304 7.81959 14.7039C7.82414 13.5653 6.90203 12.6446 5.76492 12.6507C4.64447 12.6552 3.73296 13.5713 3.72994 14.6903C3.72691 15.8274 4.6475 16.7449 5.78764 16.7404Z" fill="#002D74"/>
<path d="M7.08496 22.4115C9.3077 21.6635 10.999 20.2932 12.0316 18.1765C13.0673 16.0552 13.0794 13.8779 12.2936 11.6672C15.4975 14.5335 16.6845 18.1901 16.518 22.4115H7.08496Z" fill="#002D74"/>
</svg>
