<svg width="30" height="31" viewBox="0 0 30 31" fill="none" xmlns="http://www.w3.org/2000/svg">
<path fill-rule="evenodd" clip-rule="evenodd" d="M10.8101 20.7452C8.60791 20.0103 8.06104 18.9468 8.6792 16.6265L8.51709 16.5806C8.39746 16.5474 8.27734 16.5137 8.16016 16.4737C6.93213 16.0504 6.14746 14.8414 6.28613 13.5982C6.42676 12.357 7.41162 11.3262 8.69678 11.2042C9.61768 11.1192 10.5527 11.148 11.4814 11.1578C11.9351 11.1636 12.2363 11.4942 12.2124 11.8751C12.1909 12.2427 11.8955 12.5035 11.4497 12.5113C10.6597 12.523 9.86963 12.5001 9.08105 12.523C8.3623 12.5445 7.82129 13.0006 7.69238 13.6446C7.57178 14.2383 7.9126 14.8707 8.50879 15.1221C8.6748 15.1915 8.86719 15.2379 9.04736 15.2398C10.3599 15.2457 11.6738 15.2437 12.9868 15.2413L14.1118 15.2398C14.1406 15.2398 14.1689 15.231 14.2095 15.2183L14.2861 15.1954C14.2944 15.0425 14.3081 14.8824 14.3081 14.7217L14.3086 12.1221V11.7178C14.3091 9.83063 14.3096 7.9444 14.3159 6.0567C14.3159 5.75299 14.2485 5.58307 13.9336 5.44147C12.8921 4.9776 12.3633 3.84039 12.6304 2.75397C12.896 1.67487 13.8486 0.940003 14.9912 0.93219C16.1558 0.924378 17.1226 1.66119 17.3921 2.76178C17.6553 3.84821 17.1187 4.96588 16.0825 5.45123C15.8628 5.55573 15.7007 5.62946 15.7026 5.92926C15.7139 8.39117 15.7129 10.8531 15.7124 13.315V14.9556C15.7124 15.0294 15.728 15.1026 15.7383 15.1973L15.8091 15.2149C15.8623 15.2286 15.9126 15.2418 15.9639 15.2418L16.8945 15.2442C18.2407 15.2486 19.5879 15.2525 20.9355 15.2398C21.6562 15.2339 22.1929 14.7818 22.3276 14.1319C22.4468 13.5538 22.1318 12.9175 21.5532 12.6739C21.4116 12.6138 21.2549 12.5753 21.0957 12.5523C20.9785 12.5352 20.8604 12.5264 20.7451 12.523C20.3276 12.5103 19.9102 12.5123 19.4932 12.5142C19.2134 12.5152 18.9336 12.5162 18.6538 12.5132C18.4033 12.5103 18.2012 12.4517 18.0576 12.3467C17.9907 12.2984 17.937 12.2398 17.8965 12.1729C17.8438 12.0855 17.8135 11.983 17.8081 11.8672C17.7983 11.6685 17.8691 11.4962 18.0034 11.3702C18.1489 11.2344 18.3682 11.1529 18.6396 11.1519C19 11.1505 19.3613 11.1431 19.7222 11.1407C20.23 11.1378 20.7368 11.1441 21.2402 11.1905C22.6367 11.3184 23.6787 12.4244 23.7422 13.7432C23.8071 15.1026 22.9297 16.2379 21.5571 16.5684C21.5098 16.5801 21.4634 16.5933 21.417 16.6065L21.3452 16.6265C21.9731 18.9317 21.3613 20.1226 19.2144 20.7374C19.7349 21.8243 19.6855 22.8687 18.8931 23.8199C18.7207 24.0269 18.5332 24.1944 18.332 24.3287C18.1343 24.461 17.9233 24.5611 17.7007 24.6348C17.1211 24.8272 16.4624 24.8428 15.748 24.7906L16.2095 25.3282C16.5166 25.6861 16.6816 26.0875 16.6968 26.4849C16.7144 26.9459 16.5303 27.4014 16.1323 27.7784C15.9316 27.9688 15.7959 28.1612 15.7217 28.3751C15.6597 28.5543 15.6401 28.7491 15.6606 28.9713C15.6982 29.3619 15.6729 29.7584 15.667 30.1509C15.6587 30.6461 15.3936 30.9361 14.9678 30.9322C14.5459 30.9283 14.2822 30.6324 14.2744 30.1353C14.2715 29.9244 14.2725 29.713 14.2734 29.5015C14.2754 29.1837 14.2773 28.8658 14.2646 28.5479C14.2563 28.3853 14.1992 28.1671 14.082 28.0762C13.0283 27.2676 12.9531 25.8697 14.0742 24.9937C14.0947 24.9776 14.1089 24.9547 14.1333 24.9141C14.1494 24.8878 14.1699 24.8541 14.1992 24.8101C13.9712 24.8101 13.7969 24.7984 13.6226 24.8101C11.3828 24.98 9.74463 22.857 10.8101 20.7452ZM14.2783 19.3336V16.6246C13.9785 16.6246 13.6812 16.6231 13.3857 16.6216H13.3799C12.6143 16.6172 11.8604 16.6129 11.1074 16.6324C10.3486 16.6514 9.79395 17.2296 9.77832 17.9434C9.76855 18.3853 9.95605 18.7896 10.2773 19.045C10.48 19.2061 10.7363 19.3077 11.0298 19.3218C12.0938 19.3721 13.1592 19.3336 14.2783 19.3336ZM15.7461 16.6475V19.3511L16.1899 19.3521C16.5225 19.3536 16.8433 19.3546 17.1641 19.3492C17.3384 19.3472 17.5127 19.3477 17.687 19.3482C18.1631 19.3497 18.6396 19.3511 19.1113 19.2989C19.5049 19.2549 19.8237 19.0372 20.021 18.732C20.165 18.5089 20.2441 18.2393 20.2402 17.9566C20.2305 17.313 19.7529 16.692 19.1094 16.6612C18.7036 16.6426 18.2974 16.6358 17.8892 16.6348C17.5146 16.6339 17.1392 16.6373 16.7607 16.6407C16.4248 16.6441 16.0869 16.6475 15.7461 16.6475ZM14.2881 20.7242C13.8901 20.7242 13.5356 20.7105 13.1851 20.7261C12.5195 20.7569 11.9927 21.2247 11.8779 21.8707C11.8262 22.1563 11.8833 22.4649 12.0254 22.7266C12.1763 23.0035 12.4233 23.2276 12.7393 23.315C12.9502 23.3741 13.1699 23.4039 13.395 23.4234C13.5303 23.4351 13.6675 23.4429 13.8062 23.4507C13.9653 23.4595 14.1265 23.4683 14.2881 23.4835V20.7242ZM15.7383 23.4737C15.8955 23.4634 16.0479 23.4581 16.1963 23.4527C16.5195 23.4415 16.8247 23.4307 17.1206 23.3712C17.5 23.295 17.8081 23.044 17.9873 22.7232C18.104 22.5147 18.1665 22.2764 18.1587 22.0372C18.1367 21.4434 17.6792 20.8458 17.0947 20.7628C16.7974 20.7213 16.4932 20.7315 16.1797 20.7418H16.1738L16.1387 20.7432C16.0063 20.7471 15.873 20.751 15.7383 20.751V23.4737ZM29.9976 2.33258C30.0688 4.19879 28.6626 5.46149 26.2163 5.72809C26.2056 5.7984 26.1963 5.87018 26.187 5.94293C26.1694 6.086 26.1509 6.232 26.1191 6.37408C25.7725 7.94244 24.4478 9.06403 22.7979 9.10455C21.6841 9.13287 20.5703 9.12653 19.4565 9.12018L18.7007 9.11578L18.0142 9.11432C18.0029 9.11432 17.9922 9.11237 17.9805 9.10944C17.9658 9.10602 17.9507 9.10065 17.9331 9.09479C17.9131 9.08746 17.8896 9.07916 17.8618 9.07184L17.8984 8.9859C17.9297 8.91168 17.9585 8.84332 17.9946 8.77985C19.064 6.89069 20.1396 5.00299 21.2031 3.10992C21.3921 2.77448 21.6313 2.5401 21.9385 2.41071C22.1274 2.33112 22.3418 2.29108 22.5859 2.29205C24.9546 2.29791 27.3213 2.29401 29.6904 2.29596C29.7607 2.29596 29.8301 2.30719 29.8979 2.31793L29.9976 2.33258ZM10.7529 9.11725H12.1909L12.0981 8.93121C12.0391 8.81207 11.9902 8.71393 11.9355 8.61823C11.6172 8.05524 11.2969 7.49274 10.9766 6.93024C10.2749 5.69879 9.57324 4.46637 8.88916 3.22516C8.5249 2.56207 8.01758 2.27594 7.24756 2.28522C5.7002 2.30133 4.15283 2.29889 2.604 2.29645C1.90723 2.29547 1.21045 2.2945 0.513184 2.29498C0.380859 2.29498 0.247559 2.30231 0.105469 2.31061L0 2.31647C0 3.1109 0.247559 3.77838 0.716797 4.36432C1.06348 4.79547 1.46387 5.11432 1.90967 5.33307C2.47119 5.60846 3.10449 5.72467 3.79102 5.70612C3.81689 5.79498 3.83447 5.836 3.84033 5.88043C4.05469 7.85846 5.46289 9.10748 7.50098 9.11725C8.58643 9.12116 9.66943 9.11725 10.7529 9.11725Z" fill="#002D74"/>
</svg>
