<svg width="30" height="31" viewBox="0 0 30 31" fill="none" xmlns="http://www.w3.org/2000/svg">
<path fill-rule="evenodd" clip-rule="evenodd" d="M12.1532 1.49311C9.22565 2.17831 7.99259 2.90431 7.99259 3.94303C7.99259 4.25359 8.53543 5.53831 9.19894 6.79783C9.86244 8.05759 10.6514 9.62071 10.9525 10.2716C11.2534 10.9225 11.743 11.63 12.0408 11.8436C12.5381 12.2007 12.6654 12.2012 13.6109 11.8479C14.909 11.3631 15.4444 11.3658 16.8853 11.8635C18.3472 12.3687 18.3726 12.3469 19.9613 9.20959C20.637 7.87543 21.4722 6.26911 21.8176 5.64007C22.9584 3.56143 22.6626 2.98663 19.9269 1.96591C17.7954 1.17031 14.4113 0.96463 12.1532 1.49311ZM13.134 14.6607C11.2054 16.7744 12.4678 20.1051 15.1965 20.1027C16.4565 20.1017 17.4347 19.4739 17.9189 18.3558C18.364 17.3276 18.3778 16.7329 17.9808 15.6917C17.5092 14.4545 16.5807 13.8637 15.1085 13.8637C13.9878 13.8637 13.7874 13.9445 13.134 14.6607ZM24.8539 16.0683C21.3752 16.2675 21.2224 16.2978 20.7481 16.8829C20.4711 17.2244 20.2554 17.804 20.2554 18.2067C20.2554 19.1297 19.6011 20.5145 18.7427 21.4085C18.3702 21.7961 18.0656 22.3126 18.0656 22.5562C18.0656 22.7998 19.107 24.6697 20.3802 26.7113C23.0145 30.9368 23.0832 30.9814 24.7142 29.5237C27.6305 26.9168 29.8904 21.8048 29.8904 17.8145C29.8904 15.8369 29.7496 15.7882 24.8539 16.0683ZM4.46748 16.7129C0.690324 17.119 0.109375 17.3276 0.109375 18.278C0.109375 19.2795 1.02492 22.3961 1.78456 23.9806C3.10281 26.7301 6.81536 30.6637 8.09222 30.6637C8.80324 30.6637 9.08594 30.218 10.9444 26.1663C12.1015 23.6439 12.5786 22.3589 12.4823 22.0261C12.4054 21.7606 11.9994 21.2566 11.5801 20.906C10.7333 20.198 9.74441 18.5187 9.74441 17.7884C9.74441 17.1159 9.28719 16.5471 8.64952 16.4262C8.34843 16.3688 6.46653 16.4979 4.46748 16.7129Z" fill="#18316F"/>
</svg>
