<svg width="30" height="31" viewBox="0 0 30 31" fill="none" xmlns="http://www.w3.org/2000/svg">
<path fill-rule="evenodd" clip-rule="evenodd" d="M26.9529 19.9473C27.9236 16.7915 28.0662 13.5493 27.9774 10.2891C27.9774 9.58254 27.9842 8.87697 27.9842 8.1714C27.9842 7.73488 27.9817 7.29836 27.973 6.86232C27.9466 5.62209 27.5853 5.25002 26.2947 5.24416C22.3216 5.22316 18.8265 4.02785 15.908 1.35451C15.3265 0.819841 14.6956 0.776872 14.1077 1.31691C11.1649 4.02492 7.64044 5.22902 3.62774 5.24562C2.37384 5.25002 1.98761 5.65334 2.0003 6.91017C2.00616 7.54543 2.00958 8.18068 2.013 8.81642C2.0252 11.0518 2.03692 13.2886 2.16534 15.5186C2.59259 22.9199 7.08624 28.5176 14.3465 30.8145C14.6956 30.9243 15.1409 30.9839 15.472 30.8726C21.0525 28.982 25.2015 25.6504 26.9529 19.9473ZM4.54181 7.54396C8.32647 7.32082 11.9212 6.20558 14.9832 3.62599C18.033 6.17287 21.5809 7.32521 25.7742 7.54836C25.7317 8.44923 25.7073 9.35011 25.6829 10.249C25.6258 12.3628 25.5691 14.4658 25.2767 16.5371C24.9979 18.5108 24.2767 20.5117 23.3353 22.292C21.6819 25.4195 18.7454 27.2163 15.4412 28.4473C15.1243 28.565 14.6678 28.5039 14.3358 28.3789C8.51153 26.1939 5.1585 22.0733 4.58624 16.0352C4.40557 14.1372 4.45196 12.2188 4.49884 10.2642C4.52032 9.36574 4.54181 8.45949 4.54181 7.54396ZM18.2615 12.604C16.7308 14.1421 15.1888 15.6694 13.6595 17.1924C13.5477 17.1416 13.4769 17.1113 13.4305 17.0913C13.3699 17.0654 13.3514 17.0576 13.3377 17.0449C12.7791 16.5147 12.2093 15.9922 11.6644 15.4473C11.0843 14.8667 10.4656 14.5274 9.72003 15.1485C9.27081 15.522 9.24249 16.0342 9.60431 16.5952C9.71222 16.7627 9.85528 16.9351 10.032 17.1089C10.8069 17.8726 11.5848 18.6333 12.3733 19.3819C13.24 20.2066 13.7586 20.2066 14.6302 19.3687C15.3978 18.6294 16.1619 17.8862 16.9261 17.1431C17.9227 16.1743 18.9192 15.2056 19.9241 14.2461C20.5457 13.6524 20.973 12.9956 20.2674 12.2857C19.5399 11.5562 18.8602 12.0029 18.2615 12.604Z" fill="#002D74"/>
</svg>
