<svg width="30" height="31" viewBox="0 0 30 31" fill="none" xmlns="http://www.w3.org/2000/svg">
<path fill-rule="evenodd" clip-rule="evenodd" d="M11.4081 19.0242C12.3739 19.0652 13.3754 19.2918 14.2992 18.6326C14.2792 18.5862 14.2626 18.5408 14.247 18.4978C14.2162 18.4129 14.1884 18.3367 14.1435 18.2771C12.4208 16.0491 13.809 11.8328 17.4301 11.969C19.3471 12.0398 21.268 11.9612 23.1859 11.9841C25.4682 12.011 27.1288 13.6897 27.1312 15.9299C27.1342 18.1638 25.4711 19.8621 23.2045 19.9104C22.6112 19.9231 22.018 19.9212 21.4242 19.9187C20.8837 19.9168 20.3427 19.9148 19.8017 19.9241C19.558 19.9285 19.2348 19.9558 19.0849 20.1174C18.2577 21.0071 17.4726 21.9402 16.6469 22.8914C17.3637 22.8914 18.0844 22.8958 18.8075 22.9002C20.4657 22.9104 22.1371 22.9207 23.8065 22.8777C26.7533 22.8035 28.6063 21.0203 29.6205 18.1985C31.0272 14.283 28.3412 9.39332 24.5292 9.10133C21.7851 8.89088 19.0053 8.87135 16.2611 9.07398C12.0907 9.38404 9.39345 14.3587 11.0141 18.4739C11.099 18.6868 11.2675 19.0183 11.4081 19.0242ZM11.0053 11.676C11.7704 10.8445 12.4887 9.96266 13.2987 9.01002C10.8227 9.01002 8.38027 8.89186 5.95204 9.03687C2.0746 9.26832 -0.639752 13.2234 0.131244 17.3176C0.679096 20.2258 2.94326 22.6653 5.50576 22.7981C8.2289 22.9421 10.9716 23.0007 13.6884 22.8167C17.8534 22.5335 20.5893 17.573 18.9852 13.4534C18.9003 13.2341 18.7431 12.8845 18.6073 12.8787C18.4364 12.8704 18.2641 12.8562 18.0912 12.8421C17.2733 12.7756 16.4428 12.7073 15.6806 13.2644C17.7914 16.3147 15.8559 20.2346 12.1571 19.9382C10.9994 19.8455 9.83486 19.8665 8.67031 19.887C8.03017 19.8982 7.39003 19.9094 6.75087 19.9021C4.51015 19.8748 2.82704 18.1326 2.85537 15.9031C2.88515 13.7044 4.53847 12.0227 6.7455 11.9758C7.90859 11.9514 9.07167 11.9861 10.2348 11.9558C10.497 11.95 10.8324 11.8635 11.0053 11.676Z" fill="#002D74"/>
</svg>
