<svg width="30" height="31" viewBox="0 0 30 31" fill="none" xmlns="http://www.w3.org/2000/svg">
<path fill-rule="evenodd" clip-rule="evenodd" d="M19.6079 0.932129C28.5405 11.2368 27.7695 22.4004 19.4219 30.9321C18.5776 30.1631 17.7334 29.394 16.8838 28.6235C17.1504 28.2769 17.4224 27.936 17.6934 27.5967C18.2637 26.8828 18.8296 26.1743 19.3325 25.4253C23.6558 18.9854 23.2495 12.5698 19.1284 6.21436C18.6689 5.50537 18.1636 4.8252 17.6479 4.13135C17.4092 3.81006 17.1685 3.48584 16.9287 3.1543L19.6079 0.932129ZM10.2671 5.94727L12.8481 3.55518C19.9688 10.752 20.1924 19.8423 13.5137 27.23L10.8394 24.9565C13.2007 22.1157 14.9121 19.0659 14.7729 15.2988C14.6348 11.5635 12.7373 8.64453 10.2671 5.94727ZM7.42334 24.3525C12.6016 18.8335 12.2207 12.0254 6.42725 6.78564L4 9.35986C5.78516 11.1206 7.29639 12.9854 7.44873 15.561C7.60059 18.1333 6.30566 20.147 4.73535 22.0669L7.42334 24.3525Z" fill="#18316F"/>
</svg>
